<svg width="1256" height="696" viewBox="0 0 1256 696" fill="none" xmlns="http://www.w3.org/2000/svg">
<g id="dns_private_zones" clip-path="url(#clip0_10547_267393)">
<rect width="1256" height="696" fill="white"/>
<g id="OCI Region">
<rect x="0.5" y="0.5" width="1255" height="695" rx="3.5" fill="#F5F4F2"/>
<text id="OCI Region_2" fill="#312D2A" xml:space="preserve" style="white-space: pre" font-family="Oracle Sans" font-size="16" font-weight="bold" letter-spacing="0em"><tspan x="8" y="21.816">OCI Region</tspan></text>
<rect x="0.5" y="0.5" width="1255" height="695" rx="3.5" stroke="#9E9892"/>
</g>
<g id="OCI Region_3">
<text id="Compartment" fill="#AE562C" xml:space="preserve" style="white-space: pre" font-family="Oracle Sans" font-size="16" font-weight="bold" letter-spacing="0em"><tspan x="24" y="54.816">Parent compartment</tspan></text>
<rect x="16.5" y="33.5" width="1223" height="648" stroke="#AA643B" stroke-dasharray="6 4"/>
</g>
<g id="Availability Domain">
<rect x="233.5" y="50.5" width="271" height="375" rx="3.5" fill="#E4E1DD"/>
<text id="Availability Domain_2" fill="#312D2A" xml:space="preserve" style="white-space: pre" font-family="Oracle Sans" font-size="16" font-weight="600" letter-spacing="0em"><tspan x="291.969" y="71.816">Availability Domain 1</tspan></text>
<rect x="233.5" y="50.5" width="271" height="375" rx="3.5" stroke="#9E9892"/>
</g>
<g id="Availability Domain_3">
<rect x="521.5" y="50.5" width="271" height="375" rx="3.5" fill="#E4E1DD"/>
<text id="Availability Domain_4" fill="#312D2A" xml:space="preserve" style="white-space: pre" font-family="Oracle Sans" font-size="16" font-weight="600" letter-spacing="0em"><tspan x="578.914" y="71.816">Availability Domain 2</tspan></text>
<rect x="521.5" y="50.5" width="271" height="375" rx="3.5" stroke="#9E9892"/>
</g>
<g id="Availability Domain_5">
<rect x="809.5" y="50.5" width="271" height="375" rx="3.5" fill="#E4E1DD"/>
<text id="Availability Domain_6" fill="#312D2A" xml:space="preserve" style="white-space: pre" font-family="Oracle Sans" font-size="16" font-weight="600" letter-spacing="0em"><tspan x="866.859" y="71.816">Availability Domain 3</tspan></text>
<rect x="809.5" y="50.5" width="271" height="375" rx="3.5" stroke="#9E9892"/>
</g>
<g id="VCN box_New">
<rect id="Rectangle 28" x="53" y="82.9553" width="1123" height="326" stroke="#AA643B" stroke-width="2" stroke-dasharray="8 4"/>
<g id="Icon Master">
<g id="Virtual-Cloud-Network-VCN_red">
<g id="Group 39">
<path id="Vector" d="M1155.42 105.51C1154.16 105.509 1152.94 105.077 1151.97 104.285C1151 103.493 1150.32 102.389 1150.07 101.16H1143.6C1143.41 102.054 1143 102.887 1142.41 103.583C1141.82 104.279 1141.06 104.815 1140.21 105.144C1139.36 105.472 1138.44 105.581 1137.53 105.462C1136.62 105.343 1135.76 104.999 1135.03 104.462C1134.29 103.924 1133.7 103.21 1133.3 102.385C1132.91 101.56 1132.73 100.65 1132.78 99.7374C1132.83 98.8252 1133.11 97.94 1133.59 97.1627C1134.07 96.3854 1134.74 95.7407 1135.53 95.2873L1133.53 89.1409C1133.34 89.1545 1133.14 89.1545 1132.94 89.1409C1132.05 89.1429 1131.18 88.9287 1130.39 88.5167C1129.61 88.1048 1128.93 87.5075 1128.43 86.7764C1127.92 86.0453 1127.6 85.2025 1127.5 84.3207C1127.39 83.4389 1127.5 82.5446 1127.82 81.715C1128.14 80.8854 1128.65 80.1456 1129.32 79.5593C1129.99 78.973 1130.79 78.558 1131.65 78.35C1132.51 78.142 1133.41 78.1473 1134.27 78.3654C1135.13 78.5836 1135.93 79.008 1136.59 79.6021L1141.85 75.8724C1141.53 75.1672 1141.36 74.4026 1141.36 73.629C1141.36 72.1779 1141.94 70.7862 1142.96 69.7601C1143.99 68.7339 1145.38 68.1575 1146.83 68.1575C1148.28 68.1575 1149.67 68.7339 1150.7 69.7601C1151.72 70.7862 1152.3 72.1779 1152.3 73.629C1152.3 74.4019 1152.14 75.1665 1151.82 75.8724L1157.09 79.6386C1158.09 78.7254 1159.39 78.218 1160.74 78.216C1162.19 78.216 1163.58 78.7925 1164.6 79.8186C1165.63 80.8447 1166.21 82.2364 1166.21 83.6876C1166.21 85.1387 1165.63 86.5304 1164.6 87.5565C1163.58 88.5827 1162.19 89.1591 1160.74 89.1591C1160.55 89.1591 1160.35 89.1591 1160.15 89.1591L1158.15 95.3055C1159.2 95.9049 1160.02 96.8349 1160.48 97.9503C1160.95 99.0657 1161.03 100.304 1160.72 101.471C1160.41 102.639 1159.72 103.67 1158.76 104.404C1157.8 105.138 1156.62 105.533 1155.42 105.528V105.51Z" fill="white"/>
<path id="Vector_2" d="M1146.84 68.5768C1147.71 68.5788 1148.56 68.8058 1149.31 69.2355C1150.07 69.6652 1150.7 70.2831 1151.14 71.0289C1151.59 71.7746 1151.83 72.6229 1151.85 73.4909C1151.87 74.3589 1151.66 75.217 1151.25 75.9817L1157.09 80.2313C1157.66 79.6322 1158.38 79.1843 1159.16 78.9276C1159.95 78.671 1160.79 78.6136 1161.61 78.7605C1162.42 78.9075 1163.19 79.2542 1163.83 79.7698C1164.48 80.2854 1164.99 80.9536 1165.32 81.7149C1165.65 82.4762 1165.78 83.3067 1165.71 84.1323C1165.64 84.9579 1165.36 85.7527 1164.91 86.4458C1164.45 87.139 1163.84 87.7087 1163.11 88.1042C1162.38 88.4997 1161.57 88.7086 1160.74 88.7122C1160.43 88.7164 1160.13 88.692 1159.83 88.6392L1157.59 95.5243C1158.37 95.9012 1159.04 96.4744 1159.54 97.1879C1160.03 97.9015 1160.33 98.7308 1160.41 99.595C1160.49 100.459 1160.34 101.329 1159.98 102.118C1159.62 102.908 1159.06 103.591 1158.36 104.101C1157.66 104.611 1156.84 104.929 1155.97 105.026C1155.11 105.123 1154.24 104.994 1153.44 104.653C1152.65 104.311 1151.95 103.769 1151.43 103.079C1150.9 102.388 1150.56 101.573 1150.45 100.713H1143.21C1143.1 101.573 1142.76 102.388 1142.23 103.078C1141.71 103.768 1141.01 104.31 1140.21 104.65C1139.41 104.991 1138.54 105.118 1137.68 105.02C1136.82 104.922 1136 104.602 1135.3 104.092C1134.59 103.581 1134.04 102.897 1133.68 102.106C1133.32 101.316 1133.17 100.446 1133.25 99.5817C1133.33 98.7175 1133.63 97.8884 1134.13 97.1756C1134.62 96.4628 1135.29 95.8907 1136.08 95.5151L1133.84 88.6392C1133.54 88.695 1133.24 88.7225 1132.93 88.7213C1132.1 88.7198 1131.28 88.5121 1130.55 88.117C1129.82 87.7218 1129.2 87.1514 1128.74 86.4569C1128.29 85.7625 1128.01 84.9656 1127.94 84.1377C1127.87 83.3098 1128 82.4767 1128.33 81.7131C1128.65 80.9494 1129.17 80.2791 1129.82 79.7622C1130.47 79.2452 1131.24 78.8978 1132.05 78.7509C1132.87 78.6041 1133.71 78.6624 1134.5 78.9208C1135.29 79.1792 1136 79.6294 1136.58 80.2313L1142.42 75.9817C1142.01 75.2164 1141.8 74.3574 1141.82 73.4886C1141.84 72.6199 1142.09 71.771 1142.53 71.025C1142.98 70.2789 1143.61 69.6612 1144.36 69.2321C1145.12 68.803 1145.97 68.5773 1146.84 68.5768ZM1146.84 67.6649C1145.27 67.6649 1143.76 68.2891 1142.65 69.4005C1141.53 70.5119 1140.91 72.0195 1140.91 73.5924C1140.91 74.3061 1141.04 75.0139 1141.29 75.6807L1136.63 79.0549C1135.89 78.4636 1135.02 78.0586 1134.09 77.8738C1133.16 77.6889 1132.2 77.7297 1131.29 77.9926C1130.38 78.2555 1129.54 78.7329 1128.85 79.3849C1128.17 80.0368 1127.64 80.8443 1127.33 81.7397C1127.02 82.6351 1126.93 83.5924 1127.06 84.5315C1127.19 85.4705 1127.55 86.3638 1128.1 87.1368C1128.65 87.9098 1129.37 88.5398 1130.22 88.9741C1131.06 89.4085 1131.99 89.6345 1132.94 89.6332H1133.21L1135.03 95.1048C1134.23 95.633 1133.57 96.3467 1133.11 97.1849C1132.65 98.023 1132.4 98.9607 1132.37 99.9177C1132.35 100.875 1132.56 101.822 1132.99 102.68C1133.41 103.538 1134.04 104.28 1134.81 104.843C1135.59 105.405 1136.49 105.772 1137.43 105.912C1138.38 106.052 1139.35 105.96 1140.25 105.645C1141.15 105.329 1141.97 104.8 1142.62 104.101C1143.27 103.403 1143.75 102.556 1144.01 101.634H1149.75C1150 102.56 1150.48 103.41 1151.13 104.112C1151.78 104.813 1152.6 105.346 1153.5 105.664C1154.41 105.981 1155.38 106.075 1156.33 105.936C1157.28 105.797 1158.18 105.429 1158.95 104.865C1159.73 104.301 1160.36 103.557 1160.78 102.697C1161.21 101.837 1161.42 100.887 1161.4 99.9271C1161.38 98.9674 1161.12 98.0274 1160.66 97.1875C1160.2 96.3477 1159.53 95.633 1158.73 95.1048L1160.56 89.6332H1160.74C1161.54 89.6779 1162.35 89.5578 1163.11 89.2801C1163.87 89.0024 1164.56 88.5731 1165.14 88.0183C1165.73 87.4634 1166.2 86.7948 1166.52 86.0533C1166.84 85.3118 1167 84.513 1167 83.7057C1167 82.8984 1166.84 82.0996 1166.52 81.3581C1166.2 80.6165 1165.73 79.9479 1165.14 79.3931C1164.56 78.8383 1163.87 78.4089 1163.11 78.1313C1162.35 77.8536 1161.54 77.7334 1160.74 77.7782C1159.4 77.7748 1158.09 78.2319 1157.05 79.0731L1152.4 75.699C1152.65 75.0304 1152.77 74.3234 1152.77 73.6107C1152.77 72.8303 1152.62 72.0573 1152.32 71.336C1152.03 70.6147 1151.59 69.9592 1151.04 69.4069C1150.49 68.8547 1149.83 68.4166 1149.11 68.1177C1148.39 67.8188 1147.62 67.6649 1146.84 67.6649V67.6649Z" fill="white"/>
<path id="Vector_3" d="M1160.74 78.6708C1160.06 78.669 1159.38 78.8064 1158.76 79.0745C1158.13 79.3426 1157.56 79.7359 1157.09 80.2302L1151.25 75.9806C1151.67 75.2152 1151.87 74.3553 1151.86 73.485C1151.84 72.6148 1151.59 71.7641 1151.15 71.0162C1150.7 70.2684 1150.07 69.6491 1149.32 69.2191C1148.56 68.789 1147.71 68.5629 1146.84 68.5629C1145.97 68.5629 1145.11 68.789 1144.35 69.2191C1143.6 69.6491 1142.97 70.2684 1142.52 71.0162C1142.08 71.7641 1141.83 72.6148 1141.81 73.485C1141.8 74.3553 1142.01 75.2152 1142.42 75.9806L1136.57 80.2302C1136 79.6332 1135.28 79.1874 1134.5 78.9326C1133.71 78.6778 1132.87 78.6219 1132.06 78.7699C1131.24 78.9179 1130.48 79.2652 1129.83 79.7808C1129.18 80.2964 1128.67 80.9642 1128.35 81.7248C1128.02 82.4853 1127.89 83.315 1127.96 84.1396C1128.03 84.9643 1128.31 85.7584 1128.76 86.4511C1129.21 87.1437 1129.83 87.7134 1130.56 88.1094C1131.28 88.5053 1132.1 88.7152 1132.92 88.7202C1133.23 88.7214 1133.53 88.694 1133.83 88.6381L1136.07 95.5049C1135.29 95.8805 1134.61 96.4526 1134.12 97.1654C1133.62 97.8782 1133.32 98.7072 1133.24 99.5715C1133.17 100.436 1133.31 101.306 1133.67 102.096C1134.03 102.887 1134.59 103.571 1135.29 104.081C1135.99 104.592 1136.81 104.912 1137.67 105.01C1138.53 105.108 1139.41 104.98 1140.2 104.64C1141 104.3 1141.7 103.758 1142.22 103.068C1142.75 102.378 1143.09 101.563 1143.2 100.703H1150.44C1150.56 101.563 1150.89 102.378 1151.42 103.068C1151.94 103.759 1152.64 104.301 1153.44 104.643C1154.23 104.984 1155.1 105.113 1155.97 105.016C1156.83 104.919 1157.65 104.6 1158.35 104.091C1159.05 103.581 1159.61 102.898 1159.97 102.108C1160.33 101.318 1160.48 100.449 1160.4 99.5848C1160.32 98.7206 1160.02 97.8912 1159.53 97.1777C1159.04 96.4642 1158.37 95.891 1157.59 95.5141L1159.83 88.6381C1160.13 88.694 1160.43 88.7214 1160.74 88.7202C1161.42 88.7615 1162.11 88.6624 1162.75 88.429C1163.4 88.1956 1163.98 87.8328 1164.48 87.363C1164.98 86.8932 1165.38 86.3263 1165.65 85.6972C1165.92 85.068 1166.06 84.3899 1166.06 83.7046C1166.06 83.0193 1165.92 82.3412 1165.65 81.712C1165.38 81.0829 1164.98 80.516 1164.48 80.0462C1163.98 79.5764 1163.4 79.2136 1162.75 78.9802C1162.11 78.7469 1161.42 78.6477 1160.74 78.689V78.6708ZM1155.42 103.712C1154.7 103.712 1153.99 103.498 1153.39 103.098C1152.79 102.697 1152.32 102.127 1152.05 101.46C1151.77 100.794 1151.7 100.061 1151.84 99.3529C1151.98 98.6453 1152.33 97.9954 1152.84 97.4852C1153.35 96.9751 1154 96.6277 1154.7 96.4869C1155.41 96.3462 1156.15 96.4184 1156.81 96.6945C1157.48 96.9706 1158.05 97.4381 1158.45 98.038C1158.85 98.6379 1159.06 99.3431 1159.06 100.065C1159.06 101.032 1158.68 101.96 1157.99 102.644C1157.31 103.328 1156.38 103.712 1155.42 103.712ZM1143.21 99.3624C1143.06 98.2301 1142.53 97.1837 1141.7 96.3986L1144.43 92.5776C1145.17 92.9667 1145.98 93.1702 1146.81 93.1704C1147.64 93.1732 1148.45 92.9695 1149.18 92.5776L1151.92 96.3986C1151.08 97.1828 1150.55 98.2291 1150.39 99.3624H1143.21ZM1134.56 100.037C1134.56 99.3158 1134.78 98.6105 1135.18 98.0106C1135.58 97.4108 1136.15 96.9432 1136.81 96.6672C1137.48 96.3911 1138.21 96.3188 1138.92 96.4596C1139.63 96.6003 1140.28 96.9477 1140.79 97.4579C1141.3 97.968 1141.64 98.618 1141.78 99.3256C1141.93 100.033 1141.85 100.767 1141.58 101.433C1141.3 102.1 1140.83 102.669 1140.23 103.07C1139.64 103.471 1138.93 103.685 1138.21 103.685C1137.24 103.685 1136.32 103.301 1135.63 102.617C1134.95 101.932 1134.56 101.005 1134.56 100.037ZM1132.94 80.0204C1133.66 80.0204 1134.37 80.2344 1134.97 80.6352C1135.57 81.036 1136.03 81.6057 1136.31 82.2722C1136.59 82.9387 1136.66 83.6722 1136.52 84.3798C1136.38 85.0873 1136.03 85.7373 1135.52 86.2474C1135.01 86.7576 1134.36 87.105 1133.65 87.2457C1132.95 87.3865 1132.21 87.3143 1131.55 87.0382C1130.88 86.7621 1130.31 86.2945 1129.91 85.6947C1129.51 85.0948 1129.3 84.3896 1129.3 83.6681C1129.3 82.7007 1129.68 81.7729 1130.36 81.0888C1131.05 80.4047 1131.97 80.0204 1132.94 80.0204ZM1143.16 73.6369C1143.16 72.9155 1143.37 72.2103 1143.77 71.6104C1144.17 71.0105 1144.74 70.543 1145.41 70.2669C1146.07 69.9908 1146.81 69.9186 1147.51 70.0593C1148.22 70.2001 1148.87 70.5475 1149.38 71.0576C1149.89 71.5678 1150.24 72.2177 1150.38 72.9253C1150.52 73.6329 1150.45 74.3663 1150.17 75.0329C1149.9 75.6994 1149.43 76.2691 1148.83 76.6699C1148.23 77.0707 1147.52 77.2846 1146.8 77.2846C1146.32 77.2847 1145.84 77.1888 1145.4 77.0027C1144.95 76.8165 1144.55 76.5438 1144.21 76.2002C1143.87 75.8566 1143.6 75.4491 1143.42 75.0013C1143.24 74.5534 1143.15 74.0742 1143.16 73.5913V73.6369ZM1155.79 84.5801L1151.37 85.9935C1151.01 85.2392 1150.47 84.5861 1149.79 84.0927C1149.12 83.5993 1148.33 83.2811 1147.51 83.1666V78.6069C1148.63 78.4566 1149.68 77.9221 1150.46 77.0931L1156.32 81.3427C1155.92 82.0731 1155.71 82.8916 1155.72 83.7228C1155.72 84.007 1155.74 84.2906 1155.79 84.5709V84.5801ZM1150.51 88.1639C1150.51 88.8854 1150.3 89.5906 1149.9 90.1905C1149.5 90.7903 1148.93 91.2579 1148.26 91.534C1147.6 91.8101 1146.86 91.8823 1146.16 91.7415C1145.45 91.6008 1144.8 91.2534 1144.29 90.7432C1143.78 90.2331 1143.43 89.5831 1143.29 88.8756C1143.15 88.168 1143.22 87.4345 1143.5 86.768C1143.78 86.1015 1144.24 85.5318 1144.84 85.131C1145.44 84.7302 1146.15 84.5162 1146.87 84.5162C1147.83 84.5162 1148.76 84.8993 1149.44 85.5814C1150.13 86.2635 1150.51 87.189 1150.51 88.1548V88.1639ZM1146.16 78.6069V83.1666C1145.33 83.2793 1144.55 83.5958 1143.87 84.0878C1143.2 84.5797 1142.66 85.2315 1142.3 85.9844L1137.87 84.5709C1137.93 84.2704 1137.96 83.9649 1137.95 83.659C1137.95 82.8504 1137.74 82.0556 1137.36 81.3427L1143.21 77.084C1143.99 77.9145 1145.03 78.4522 1146.16 78.6069ZM1137.46 85.9023L1141.89 87.3158C1141.83 87.6165 1141.81 87.9219 1141.81 88.2278C1141.81 88.9109 1141.94 89.5874 1142.21 90.2151C1142.48 90.8427 1142.88 91.4079 1143.38 91.8755L1140.64 95.7056C1139.92 95.3098 1139.1 95.1029 1138.27 95.1037C1137.97 95.1018 1137.66 95.1293 1137.36 95.1858L1135.12 88.2186C1136.14 87.7342 1136.97 86.9178 1137.47 85.9023H1137.46ZM1155.42 95.0216C1154.59 95.0229 1153.78 95.2264 1153.05 95.6144L1150.31 91.8025C1150.81 91.3336 1151.2 90.7681 1151.47 90.1408C1151.74 89.5135 1151.88 88.8376 1151.88 88.1548C1151.88 87.8489 1151.85 87.5435 1151.8 87.2429L1156.18 85.8476C1156.68 86.8789 1157.51 87.7138 1158.53 88.2186L1156.3 95.0946C1156.01 95.0435 1155.71 95.0191 1155.42 95.0216ZM1157.09 83.6955C1157.09 82.974 1157.31 82.2688 1157.71 81.6689C1158.11 81.0691 1158.68 80.6015 1159.34 80.3254C1160.01 80.0494 1160.74 79.9771 1161.45 80.1179C1162.16 80.2586 1162.81 80.606 1163.32 81.1162C1163.83 81.6263 1164.17 82.2763 1164.31 82.9839C1164.45 83.6914 1164.38 84.4249 1164.11 85.0914C1163.83 85.7579 1163.36 86.3276 1162.76 86.7284C1162.16 87.1293 1161.46 87.3432 1160.74 87.3432C1159.77 87.3432 1158.84 86.9589 1158.16 86.2748C1157.48 85.5907 1157.09 84.6629 1157.09 83.6955Z" fill="#AA643B"/>
</g>
</g>
</g>
<text id="VCN" fill="#AE562C" xml:space="preserve" style="white-space: pre" font-family="Oracle Sans" font-size="16" font-weight="600" letter-spacing="0em"><tspan x="61" y="104.816">VCN</tspan></text>
</g>
<g id="Private Subnet_New">
<text id="Subnet" fill="#AE562C" xml:space="preserve" style="white-space: pre" font-family="Oracle Sans" font-size="16" font-weight="600" letter-spacing="0em"><tspan x="98" y="135.816">Private Subnet 1</tspan></text>
<text id="00.0.00.0/00" fill="#312D2A" xml:space="preserve" style="white-space: pre" font-family="Oracle Sans" font-size="16" font-weight="300" letter-spacing="0em"><tspan x="98" y="151.816">10.0.0.0/24</tspan></text>
<g id="Icon Master_2">
<g id="OCI-SL_RT">
<g id="Group">
<g id="Group_2">
<path id="Vector_4" d="M1088.48 133.519V107.077H1105.24V99.2884L1116.48 94.4807L1127.62 99.2884V109.481C1127.62 109.577 1127.62 112.077 1126.19 115.058C1124.95 117.75 1122.38 121.404 1116.86 123.423V133.423H1088.48V133.519Z" fill="white"/>
<path id="Vector_5" d="M1116.38 95.0577L1127.05 99.5769V109.481C1127.05 109.577 1127.05 111.981 1125.71 114.865C1124.48 117.558 1122 121.115 1116.67 123.038L1116.48 123.135H1116.38V133.038H1088.95V107.558H1105.71V99.5769L1116.38 95.0577ZM1116.38 94L1116 94.1923L1105.33 98.7115L1104.76 99V99.6731V106.692H1088.95H1088V107.654V133.038V134H1088.95H1116.38H1117.33V133.038V123.808C1122.67 121.692 1125.33 118.038 1126.57 115.25C1128 112.173 1128 109.577 1128 109.481V99.5769V99L1127.43 98.7115L1116.76 94.1923L1116.38 94Z" fill="white"/>
</g>
<g id="Group_3">
<path id="Vector_6" d="M1115.05 123.712H1097.52V116.981H1107.05C1106.76 116.5 1106.57 116.116 1106.38 115.731H1097.52V109H1104.67V107.75H1088.95V133.135H1116.38V124.289L1115.9 124.097C1115.62 123.904 1115.33 123.808 1115.05 123.712ZM1090.19 108.904H1096.29V115.635H1090.19V108.904ZM1096.29 116.885V123.616H1090.19V116.885H1096.29ZM1090.19 124.962H1096.29V131.693H1090.19V124.962ZM1115.05 131.693H1097.52V124.962H1115.05V131.693Z" fill="#AA643B"/>
<path id="Vector_7" d="M1113.62 129.192H1112.38V130.442H1113.62V129.192Z" fill="#AA643B"/>
<path id="Vector_8" d="M1108.38 130.442L1109.52 129.289L1110.67 130.442L1111.52 129.481L1110.38 128.327L1111.52 127.173L1110.67 126.308L1109.52 127.462L1108.38 126.308L1107.43 127.173L1108.57 128.327L1107.43 129.481L1108.38 130.442Z" fill="#AA643B"/>
<path id="Vector_9" d="M1105.62 129.192H1104.38V130.442H1105.62V129.192Z" fill="#AA643B"/>
<path id="Vector_10" d="M1099.52 129.481L1100.38 130.442L1101.52 129.289L1102.67 130.442L1103.62 129.481L1102.48 128.327L1103.62 127.173L1102.67 126.308L1101.52 127.462L1100.38 126.308L1099.52 127.173L1100.67 128.327L1099.52 129.481Z" fill="#AA643B"/>
<path id="Vector_11" d="M1105.62 121.116H1104.38V122.366H1105.62V121.116Z" fill="#AA643B"/>
<path id="Vector_12" d="M1099.52 121.404L1100.38 122.366L1101.52 121.212L1102.67 122.366L1103.62 121.404L1102.48 120.25L1103.62 119.096L1102.67 118.231L1101.52 119.385L1100.38 118.231L1099.52 119.096L1100.67 120.25L1099.52 121.404Z" fill="#AA643B"/>
<path id="Vector_13" d="M1104.1 114.385H1105.33V113.135C1105.33 113.135 1105.33 113.135 1105.33 113.039H1104.1V114.385Z" fill="#AA643B"/>
<path id="Vector_14" d="M1099.14 113.423L1100.1 114.289L1101.24 113.135L1102.38 114.289L1103.24 113.423L1102.1 112.27L1103.24 111.116L1102.38 110.154L1101.24 111.308L1100.1 110.154L1099.14 111.116L1100.29 112.27L1099.14 113.423Z" fill="#AA643B"/>
<path id="Vector_15" d="M1105.71 99.5771V109.481C1105.71 109.577 1105.81 111.981 1107.05 114.866C1108.29 117.558 1110.86 121.116 1116.19 123.039L1116.38 123.135L1116.57 123.039C1121.9 121.116 1124.48 117.558 1125.62 114.866C1126.95 111.981 1126.95 109.577 1126.95 109.481V99.5771L1116.38 95.0579L1105.71 99.5771ZM1125.81 109.481C1125.81 109.577 1125.62 118.231 1116.48 121.692C1112.67 120.25 1109.9 117.75 1108.29 114.385C1107.05 111.789 1107.05 109.481 1107.05 109.481V100.442L1116.48 96.404L1125.81 100.442V109.481Z" fill="#AA643B"/>
<path id="Vector_16" d="M1115.24 110.827H1110.29V112.077H1115.24V110.827Z" fill="#AA643B"/>
<path id="Vector_17" d="M1115.24 104.385H1110.29V105.635H1115.24V104.385Z" fill="#AA643B"/>
<path id="Vector_18" d="M1121.9 102.943L1119.14 105.635L1118.19 104.673L1117.24 105.539L1119.14 107.462L1122.76 103.808L1121.9 102.943Z" fill="#AA643B"/>
<path id="Vector_19" d="M1110.29 108.904H1115.05H1115.24V107.558H1110.29V108.904Z" fill="#AA643B"/>
</g>
</g>
</g>
</g>
<rect x="90.5" y="114.5" width="1046" height="127" stroke="#AA643B" stroke-dasharray="8 4"/>
</g>
<g id="Private Subnet_New_2">
<text id="Subnet_2" fill="#AE562C" xml:space="preserve" style="white-space: pre" font-family="Oracle Sans" font-size="16" font-weight="600" letter-spacing="0em"><tspan x="98" y="287.816">Private Subnet 2</tspan></text>
<text id="00.0.00.0/00_2" fill="#312D2A" xml:space="preserve" style="white-space: pre" font-family="Oracle Sans" font-size="16" font-weight="300" letter-spacing="0em"><tspan x="98" y="303.816">10.0.1.0/24</tspan></text>
<g id="Icon Master_3">
<g id="OCI-SL_RT_2">
<g id="Group_4">
<g id="Group_5">
<path id="Vector_20" d="M1088.48 285.519V259.077H1105.24V251.288L1116.48 246.481L1127.62 251.288V261.481C1127.62 261.577 1127.62 264.077 1126.19 267.058C1124.95 269.75 1122.38 273.404 1116.86 275.423V285.423H1088.48V285.519Z" fill="white"/>
<path id="Vector_21" d="M1116.38 247.058L1127.05 251.577V261.481C1127.05 261.577 1127.05 263.981 1125.71 266.865C1124.48 269.558 1122 273.115 1116.67 275.038L1116.48 275.135H1116.38V285.038H1088.95V259.558H1105.71V251.577L1116.38 247.058ZM1116.38 246L1116 246.192L1105.33 250.712L1104.76 251V251.673V258.692H1088.95H1088V259.654V285.038V286H1088.95H1116.38H1117.33V285.038V275.808C1122.67 273.692 1125.33 270.038 1126.57 267.25C1128 264.173 1128 261.577 1128 261.481V251.577V251L1127.43 250.712L1116.76 246.192L1116.38 246Z" fill="white"/>
</g>
<g id="Group_6">
<path id="Vector_22" d="M1115.05 275.712H1097.52V268.981H1107.05C1106.76 268.5 1106.57 268.116 1106.38 267.731H1097.52V261H1104.67V259.75H1088.95V285.135H1116.38V276.289L1115.9 276.097C1115.62 275.904 1115.33 275.808 1115.05 275.712ZM1090.19 260.904H1096.29V267.635H1090.19V260.904ZM1096.29 268.885V275.616H1090.19V268.885H1096.29ZM1090.19 276.962H1096.29V283.693H1090.19V276.962ZM1115.05 283.693H1097.52V276.962H1115.05V283.693Z" fill="#AA643B"/>
<path id="Vector_23" d="M1113.62 281.192H1112.38V282.442H1113.62V281.192Z" fill="#AA643B"/>
<path id="Vector_24" d="M1108.38 282.442L1109.52 281.289L1110.67 282.442L1111.52 281.481L1110.38 280.327L1111.52 279.173L1110.67 278.308L1109.52 279.462L1108.38 278.308L1107.43 279.173L1108.57 280.327L1107.43 281.481L1108.38 282.442Z" fill="#AA643B"/>
<path id="Vector_25" d="M1105.62 281.192H1104.38V282.442H1105.62V281.192Z" fill="#AA643B"/>
<path id="Vector_26" d="M1099.52 281.481L1100.38 282.442L1101.52 281.289L1102.67 282.442L1103.62 281.481L1102.48 280.327L1103.62 279.173L1102.67 278.308L1101.52 279.462L1100.38 278.308L1099.52 279.173L1100.67 280.327L1099.52 281.481Z" fill="#AA643B"/>
<path id="Vector_27" d="M1105.62 273.116H1104.38V274.366H1105.62V273.116Z" fill="#AA643B"/>
<path id="Vector_28" d="M1099.52 273.404L1100.38 274.366L1101.52 273.212L1102.67 274.366L1103.62 273.404L1102.48 272.25L1103.62 271.096L1102.67 270.231L1101.52 271.385L1100.38 270.231L1099.52 271.096L1100.67 272.25L1099.52 273.404Z" fill="#AA643B"/>
<path id="Vector_29" d="M1104.1 266.385H1105.33V265.135C1105.33 265.135 1105.33 265.135 1105.33 265.039H1104.1V266.385Z" fill="#AA643B"/>
<path id="Vector_30" d="M1099.14 265.423L1100.1 266.289L1101.24 265.135L1102.38 266.289L1103.24 265.423L1102.1 264.27L1103.24 263.116L1102.38 262.154L1101.24 263.308L1100.1 262.154L1099.14 263.116L1100.29 264.27L1099.14 265.423Z" fill="#AA643B"/>
<path id="Vector_31" d="M1105.71 251.577V261.481C1105.71 261.577 1105.81 263.981 1107.05 266.866C1108.29 269.558 1110.86 273.116 1116.19 275.039L1116.38 275.135L1116.57 275.039C1121.9 273.116 1124.48 269.558 1125.62 266.866C1126.95 263.981 1126.95 261.577 1126.95 261.481V251.577L1116.38 247.058L1105.71 251.577ZM1125.81 261.481C1125.81 261.577 1125.62 270.231 1116.48 273.692C1112.67 272.25 1109.9 269.75 1108.29 266.385C1107.05 263.789 1107.05 261.481 1107.05 261.481V252.442L1116.48 248.404L1125.81 252.442V261.481Z" fill="#AA643B"/>
<path id="Vector_32" d="M1115.24 262.827H1110.29V264.077H1115.24V262.827Z" fill="#AA643B"/>
<path id="Vector_33" d="M1115.24 256.385H1110.29V257.635H1115.24V256.385Z" fill="#AA643B"/>
<path id="Vector_34" d="M1121.9 254.943L1119.14 257.635L1118.19 256.673L1117.24 257.539L1119.14 259.462L1122.76 255.808L1121.9 254.943Z" fill="#AA643B"/>
<path id="Vector_35" d="M1110.29 260.904H1115.05H1115.24V259.558H1110.29V260.904Z" fill="#AA643B"/>
</g>
</g>
</g>
</g>
<rect x="90.5" y="266.5" width="1046" height="127" stroke="#AA643B" stroke-dasharray="8 4"/>
</g>
<g id="Virtual Machine VM">
<g id="Virtual-Machine-VM">
<g id="Group_7">
<g id="Group_8">
<path id="Vector_36" d="M336.133 208.048C333.853 208.048 331.952 206.143 331.952 203.857V134.143C331.952 131.857 333.853 129.952 336.133 129.952H405.872C408.152 129.952 410.052 131.857 410.052 134.143V204.048C410.052 206.333 408.152 208.238 405.872 208.238L336.133 208.048Z" fill="white"/>
<path id="Vector_37" d="M405.679 130.905C407.39 130.905 408.91 132.429 408.91 134.143V204.048C408.91 205.762 407.39 207.286 405.679 207.286H336.131C334.42 207.095 332.9 205.571 332.9 203.857V134.143C332.9 132.429 334.42 130.905 336.131 130.905H405.679ZM405.679 129H336.131C333.28 129 331 131.286 331 134.143V204.048C331 206.714 333.28 209 336.131 209H405.869C408.72 209 411 206.714 411 203.857V134.143C410.81 131.286 408.53 129 405.679 129Z" fill="white"/>
</g>
<g id="Group_9">
<path id="Vector_38" d="M405.68 130.905H336.131C334.421 130.905 332.901 132.429 332.901 134.143V204.048C332.901 205.572 334.421 207.096 336.131 207.096H405.87C407.58 207.096 409.1 205.572 409.1 203.858V134.143C408.91 132.429 407.39 130.905 405.68 130.905ZM406.06 203.858C406.06 204.048 405.87 204.239 405.68 204.239H336.131C335.941 204.239 335.751 204.048 335.751 203.858V134.143C335.751 133.953 335.941 133.763 336.131 133.763H405.87C406.06 133.763 406.25 133.953 406.25 134.143L406.06 203.858Z" fill="#2D5967"/>
<path id="Vector_39" d="M343.542 196.43H398.839V179.477H343.542V196.43ZM346.202 182.335H395.798V193.763H346.202V182.335Z" fill="#2D5967"/>
<path id="Vector_40" d="M389.527 190.144C390.681 190.144 391.617 189.206 391.617 188.048C391.617 186.891 390.681 185.953 389.527 185.953C388.372 185.953 387.437 186.891 387.437 188.048C387.437 189.206 388.372 190.144 389.527 190.144Z" fill="#2D5967"/>
<path id="Vector_41" d="M360.264 141.572H343.542V158.524H360.454L360.264 141.572ZM357.603 155.667H346.202V144.238H357.603V155.667Z" fill="#2D5967"/>
<path id="Vector_42" d="M379.267 141.572H362.355V158.524H379.267V141.572ZM376.607 155.667H365.206V144.238H376.607V155.667Z" fill="#2D5967"/>
<path id="Vector_43" d="M360.264 160.619H343.542V177.571H360.454L360.264 160.619ZM357.603 174.714H346.202V163.286H357.603V174.714Z" fill="#2D5967"/>
<path id="Vector_44" d="M379.267 160.619H362.355V177.571H379.267V160.619ZM376.607 174.714H365.206V163.286H376.607V174.714Z" fill="#2D5967"/>
<path id="Vector_45" d="M398.27 141.572H381.357V158.524H398.27V141.572ZM395.609 155.667H384.208V144.238H395.609V155.667Z" fill="#2D5967"/>
<path id="Vector_46" d="M398.27 160.619H381.357V177.571H398.27V160.619ZM395.609 174.714H384.208V163.286H395.609V174.714Z" fill="#2D5967"/>
</g>
</g>
</g>
<g id="Icon Text Label">
<text id="IconLabel" fill="black" xml:space="preserve" style="white-space: pre" font-family="Oracle Sans" font-size="16" letter-spacing="0em"><tspan x="355.664" y="226.816">VM1</tspan></text>
</g>
</g>
<g id="Virtual Machine VM_2">
<g id="Virtual-Machine-VM_2">
<g id="Group_10">
<g id="Group_11">
<path id="Vector_47" d="M911.133 204.048C908.853 204.048 906.952 202.143 906.952 199.857V130.143C906.952 127.857 908.853 125.952 911.133 125.952H980.872C983.152 125.952 985.052 127.857 985.052 130.143V200.048C985.052 202.333 983.152 204.238 980.872 204.238L911.133 204.048Z" fill="white"/>
<path id="Vector_48" d="M980.679 126.905C982.39 126.905 983.91 128.429 983.91 130.143V200.048C983.91 201.762 982.39 203.286 980.679 203.286H911.131C909.42 203.095 907.9 201.571 907.9 199.857V130.143C907.9 128.429 909.42 126.905 911.131 126.905H980.679ZM980.679 125H911.131C908.28 125 906 127.286 906 130.143V200.048C906 202.714 908.28 205 911.131 205H980.869C983.72 205 986 202.714 986 199.857V130.143C985.81 127.286 983.53 125 980.679 125Z" fill="white"/>
</g>
<g id="Group_12">
<path id="Vector_49" d="M980.68 126.905H911.131C909.421 126.905 907.901 128.429 907.901 130.143V200.048C907.901 201.572 909.421 203.096 911.131 203.096H980.87C982.58 203.096 984.1 201.572 984.1 199.858V130.143C983.91 128.429 982.39 126.905 980.68 126.905ZM981.06 199.858C981.06 200.048 980.87 200.239 980.68 200.239H911.131C910.941 200.239 910.751 200.048 910.751 199.858V130.143C910.751 129.953 910.941 129.763 911.131 129.763H980.87C981.06 129.763 981.25 129.953 981.25 130.143L981.06 199.858Z" fill="#2D5967"/>
<path id="Vector_50" d="M918.542 192.43H973.839V175.477H918.542V192.43ZM921.202 178.335H970.798V189.763H921.202V178.335Z" fill="#2D5967"/>
<path id="Vector_51" d="M964.527 186.144C965.681 186.144 966.617 185.206 966.617 184.048C966.617 182.891 965.681 181.953 964.527 181.953C963.372 181.953 962.437 182.891 962.437 184.048C962.437 185.206 963.372 186.144 964.527 186.144Z" fill="#2D5967"/>
<path id="Vector_52" d="M935.264 137.572H918.542V154.524H935.454L935.264 137.572ZM932.603 151.667H921.202V140.238H932.603V151.667Z" fill="#2D5967"/>
<path id="Vector_53" d="M954.267 137.572H937.355V154.524H954.267V137.572ZM951.607 151.667H940.206V140.238H951.607V151.667Z" fill="#2D5967"/>
<path id="Vector_54" d="M935.264 156.619H918.542V173.571H935.454L935.264 156.619ZM932.603 170.714H921.202V159.286H932.603V170.714Z" fill="#2D5967"/>
<path id="Vector_55" d="M954.267 156.619H937.355V173.571H954.267V156.619ZM951.607 170.714H940.206V159.286H951.607V170.714Z" fill="#2D5967"/>
<path id="Vector_56" d="M973.27 137.572H956.357V154.524H973.27V137.572ZM970.609 151.667H959.208V140.238H970.609V151.667Z" fill="#2D5967"/>
<path id="Vector_57" d="M973.27 156.619H956.357V173.571H973.27V156.619ZM970.609 170.714H959.208V159.286H970.609V170.714Z" fill="#2D5967"/>
</g>
</g>
</g>
<g id="Icon Text Label_2">
<text id="IconLabel_2" fill="black" xml:space="preserve" style="white-space: pre" font-family="Oracle Sans" font-size="16" letter-spacing="0em"><tspan x="929.469" y="222.816">VM2</tspan></text>
</g>
</g>
<g id="Virtual Machine VM_3">
<g id="Virtual-Machine-VM_3">
<g id="Group_13">
<g id="Group_14">
<path id="Vector_58" d="M270.133 360.048C267.853 360.048 265.952 358.143 265.952 355.857V286.143C265.952 283.857 267.853 281.952 270.133 281.952H339.872C342.152 281.952 344.052 283.857 344.052 286.143V356.048C344.052 358.333 342.152 360.238 339.872 360.238L270.133 360.048Z" fill="white"/>
<path id="Vector_59" d="M339.679 282.905C341.39 282.905 342.91 284.429 342.91 286.143V356.048C342.91 357.762 341.39 359.286 339.679 359.286H270.131C268.42 359.095 266.9 357.571 266.9 355.857V286.143C266.9 284.429 268.42 282.905 270.131 282.905H339.679ZM339.679 281H270.131C267.28 281 265 283.286 265 286.143V356.048C265 358.714 267.28 361 270.131 361H339.869C342.72 361 345 358.714 345 355.857V286.143C344.81 283.286 342.53 281 339.679 281Z" fill="white"/>
</g>
<g id="Group_15">
<path id="Vector_60" d="M339.68 282.905H270.131C268.421 282.905 266.901 284.429 266.901 286.143V356.048C266.901 357.572 268.421 359.096 270.131 359.096H339.87C341.58 359.096 343.1 357.572 343.1 355.858V286.143C342.91 284.429 341.39 282.905 339.68 282.905ZM340.06 355.858C340.06 356.048 339.87 356.239 339.68 356.239H270.131C269.941 356.239 269.751 356.048 269.751 355.858V286.143C269.751 285.953 269.941 285.763 270.131 285.763H339.87C340.06 285.763 340.25 285.953 340.25 286.143L340.06 355.858Z" fill="#2D5967"/>
<path id="Vector_61" d="M277.542 348.43H332.838V331.477H277.542V348.43ZM280.202 334.335H329.798V345.763H280.202V334.335Z" fill="#2D5967"/>
<path id="Vector_62" d="M323.527 342.144C324.681 342.144 325.617 341.206 325.617 340.048C325.617 338.891 324.681 337.953 323.527 337.953C322.372 337.953 321.437 338.891 321.437 340.048C321.437 341.206 322.372 342.144 323.527 342.144Z" fill="#2D5967"/>
<path id="Vector_63" d="M294.264 293.572H277.542V310.524H294.454L294.264 293.572ZM291.603 307.667H280.202V296.238H291.603V307.667Z" fill="#2D5967"/>
<path id="Vector_64" d="M313.267 293.572H296.355V310.524H313.267V293.572ZM310.607 307.667H299.206V296.238H310.607V307.667Z" fill="#2D5967"/>
<path id="Vector_65" d="M294.264 312.619H277.542V329.571H294.454L294.264 312.619ZM291.603 326.714H280.202V315.286H291.603V326.714Z" fill="#2D5967"/>
<path id="Vector_66" d="M313.267 312.619H296.355V329.571H313.267V312.619ZM310.607 326.714H299.206V315.286H310.607V326.714Z" fill="#2D5967"/>
<path id="Vector_67" d="M332.269 293.572H315.357V310.524H332.269V293.572ZM329.609 307.667H318.208V296.238H329.609V307.667Z" fill="#2D5967"/>
<path id="Vector_68" d="M332.269 312.619H315.357V329.571H332.269V312.619ZM329.609 326.714H318.208V315.286H329.609V326.714Z" fill="#2D5967"/>
</g>
</g>
</g>
<g id="Icon Text Label_3">
<text id="IconLabel_3" fill="black" xml:space="preserve" style="white-space: pre" font-family="Oracle Sans" font-size="16" letter-spacing="0em"><tspan x="277.414" y="378.816">worker1</tspan></text>
</g>
</g>
<g id="Virtual Machine VM_4">
<g id="Virtual-Machine-VM_4">
<g id="Group_16">
<g id="Group_17">
<path id="Vector_69" d="M398.133 360.048C395.853 360.048 393.952 358.143 393.952 355.857V286.143C393.952 283.857 395.853 281.952 398.133 281.952H467.872C470.152 281.952 472.052 283.857 472.052 286.143V356.048C472.052 358.333 470.152 360.238 467.872 360.238L398.133 360.048Z" fill="white"/>
<path id="Vector_70" d="M467.679 282.905C469.39 282.905 470.91 284.429 470.91 286.143V356.048C470.91 357.762 469.39 359.286 467.679 359.286H398.131C396.42 359.095 394.9 357.571 394.9 355.857V286.143C394.9 284.429 396.42 282.905 398.131 282.905H467.679ZM467.679 281H398.131C395.28 281 393 283.286 393 286.143V356.048C393 358.714 395.28 361 398.131 361H467.869C470.72 361 473 358.714 473 355.857V286.143C472.81 283.286 470.53 281 467.679 281Z" fill="white"/>
</g>
<g id="Group_18">
<path id="Vector_71" d="M467.68 282.905H398.131C396.421 282.905 394.901 284.429 394.901 286.143V356.048C394.901 357.572 396.421 359.096 398.131 359.096H467.87C469.58 359.096 471.1 357.572 471.1 355.858V286.143C470.91 284.429 469.39 282.905 467.68 282.905ZM468.06 355.858C468.06 356.048 467.87 356.239 467.68 356.239H398.131C397.941 356.239 397.751 356.048 397.751 355.858V286.143C397.751 285.953 397.941 285.763 398.131 285.763H467.87C468.06 285.763 468.25 285.953 468.25 286.143L468.06 355.858Z" fill="#2D5967"/>
<path id="Vector_72" d="M405.542 348.43H460.839V331.477H405.542V348.43ZM408.202 334.335H457.798V345.763H408.202V334.335Z" fill="#2D5967"/>
<path id="Vector_73" d="M451.527 342.144C452.681 342.144 453.617 341.206 453.617 340.048C453.617 338.891 452.681 337.953 451.527 337.953C450.372 337.953 449.437 338.891 449.437 340.048C449.437 341.206 450.372 342.144 451.527 342.144Z" fill="#2D5967"/>
<path id="Vector_74" d="M422.264 293.572H405.542V310.524H422.454L422.264 293.572ZM419.603 307.667H408.202V296.238H419.603V307.667Z" fill="#2D5967"/>
<path id="Vector_75" d="M441.267 293.572H424.355V310.524H441.267V293.572ZM438.607 307.667H427.206V296.238H438.607V307.667Z" fill="#2D5967"/>
<path id="Vector_76" d="M422.264 312.619H405.542V329.571H422.454L422.264 312.619ZM419.603 326.714H408.202V315.286H419.603V326.714Z" fill="#2D5967"/>
<path id="Vector_77" d="M441.267 312.619H424.355V329.571H441.267V312.619ZM438.607 326.714H427.206V315.286H438.607V326.714Z" fill="#2D5967"/>
<path id="Vector_78" d="M460.27 293.572H443.357V310.524H460.27V293.572ZM457.609 307.667H446.208V296.238H457.609V307.667Z" fill="#2D5967"/>
<path id="Vector_79" d="M460.27 312.619H443.357V329.571H460.27V312.619ZM457.609 326.714H446.208V315.286H457.609V326.714Z" fill="#2D5967"/>
</g>
</g>
</g>
<g id="Icon Text Label_4">
<text id="IconLabel_4" fill="black" xml:space="preserve" style="white-space: pre" font-family="Oracle Sans" font-size="16" letter-spacing="0em"><tspan x="404.219" y="378.816">worker2</tspan></text>
</g>
</g>
<g id="Virtual Machine VM_5">
<g id="Virtual-Machine-VM_5">
<g id="Group_19">
<g id="Group_20">
<path id="Vector_80" d="M557.133 360.048C554.853 360.048 552.952 358.143 552.952 355.857V286.143C552.952 283.857 554.853 281.952 557.133 281.952H626.872C629.152 281.952 631.052 283.857 631.052 286.143V356.048C631.052 358.333 629.152 360.238 626.872 360.238L557.133 360.048Z" fill="white"/>
<path id="Vector_81" d="M626.679 282.905C628.39 282.905 629.91 284.429 629.91 286.143V356.048C629.91 357.762 628.39 359.286 626.679 359.286H557.131C555.42 359.095 553.9 357.571 553.9 355.857V286.143C553.9 284.429 555.42 282.905 557.131 282.905H626.679ZM626.679 281H557.131C554.28 281 552 283.286 552 286.143V356.048C552 358.714 554.28 361 557.131 361H626.869C629.72 361 632 358.714 632 355.857V286.143C631.81 283.286 629.53 281 626.679 281Z" fill="white"/>
</g>
<g id="Group_21">
<path id="Vector_82" d="M626.68 282.905H557.131C555.421 282.905 553.901 284.429 553.901 286.143V356.048C553.901 357.572 555.421 359.096 557.131 359.096H626.87C628.58 359.096 630.1 357.572 630.1 355.858V286.143C629.91 284.429 628.39 282.905 626.68 282.905ZM627.06 355.858C627.06 356.048 626.87 356.239 626.68 356.239H557.131C556.941 356.239 556.751 356.048 556.751 355.858V286.143C556.751 285.953 556.941 285.763 557.131 285.763H626.87C627.06 285.763 627.25 285.953 627.25 286.143L627.06 355.858Z" fill="#2D5967"/>
<path id="Vector_83" d="M564.542 348.43H619.839V331.477H564.542V348.43ZM567.202 334.335H616.798V345.763H567.202V334.335Z" fill="#2D5967"/>
<path id="Vector_84" d="M610.527 342.144C611.681 342.144 612.617 341.206 612.617 340.048C612.617 338.891 611.681 337.953 610.527 337.953C609.372 337.953 608.437 338.891 608.437 340.048C608.437 341.206 609.372 342.144 610.527 342.144Z" fill="#2D5967"/>
<path id="Vector_85" d="M581.264 293.572H564.542V310.524H581.454L581.264 293.572ZM578.603 307.667H567.202V296.238H578.603V307.667Z" fill="#2D5967"/>
<path id="Vector_86" d="M600.267 293.572H583.355V310.524H600.267V293.572ZM597.607 307.667H586.206V296.238H597.607V307.667Z" fill="#2D5967"/>
<path id="Vector_87" d="M581.264 312.619H564.542V329.571H581.454L581.264 312.619ZM578.603 326.714H567.202V315.286H578.603V326.714Z" fill="#2D5967"/>
<path id="Vector_88" d="M600.267 312.619H583.355V329.571H600.267V312.619ZM597.607 326.714H586.206V315.286H597.607V326.714Z" fill="#2D5967"/>
<path id="Vector_89" d="M619.27 293.572H602.357V310.524H619.27V293.572ZM616.609 307.667H605.208V296.238H616.609V307.667Z" fill="#2D5967"/>
<path id="Vector_90" d="M619.27 312.619H602.357V329.571H619.27V312.619ZM616.609 326.714H605.208V315.286H616.609V326.714Z" fill="#2D5967"/>
</g>
</g>
</g>
<g id="Icon Text Label_5">
<text id="IconLabel_5" fill="black" xml:space="preserve" style="white-space: pre" font-family="Oracle Sans" font-size="16" letter-spacing="0em"><tspan x="563.172" y="378.816">worker3</tspan></text>
</g>
</g>
<g id="Virtual Machine VM_6">
<g id="Virtual-Machine-VM_6">
<g id="Group_22">
<g id="Group_23">
<path id="Vector_91" d="M686.133 360.048C683.853 360.048 681.952 358.143 681.952 355.857V286.143C681.952 283.857 683.853 281.952 686.133 281.952H755.872C758.152 281.952 760.052 283.857 760.052 286.143V356.048C760.052 358.333 758.152 360.238 755.872 360.238L686.133 360.048Z" fill="white"/>
<path id="Vector_92" d="M755.679 282.905C757.39 282.905 758.91 284.429 758.91 286.143V356.048C758.91 357.762 757.39 359.286 755.679 359.286H686.131C684.42 359.095 682.9 357.571 682.9 355.857V286.143C682.9 284.429 684.42 282.905 686.131 282.905H755.679ZM755.679 281H686.131C683.28 281 681 283.286 681 286.143V356.048C681 358.714 683.28 361 686.131 361H755.869C758.72 361 761 358.714 761 355.857V286.143C760.81 283.286 758.53 281 755.679 281Z" fill="white"/>
</g>
<g id="Group_24">
<path id="Vector_93" d="M755.68 282.905H686.131C684.421 282.905 682.901 284.429 682.901 286.143V356.048C682.901 357.572 684.421 359.096 686.131 359.096H755.87C757.58 359.096 759.1 357.572 759.1 355.858V286.143C758.91 284.429 757.39 282.905 755.68 282.905ZM756.06 355.858C756.06 356.048 755.87 356.239 755.68 356.239H686.131C685.941 356.239 685.751 356.048 685.751 355.858V286.143C685.751 285.953 685.941 285.763 686.131 285.763H755.87C756.06 285.763 756.25 285.953 756.25 286.143L756.06 355.858Z" fill="#2D5967"/>
<path id="Vector_94" d="M693.542 348.43H748.839V331.477H693.542V348.43ZM696.202 334.335H745.798V345.763H696.202V334.335Z" fill="#2D5967"/>
<path id="Vector_95" d="M739.527 342.144C740.681 342.144 741.617 341.206 741.617 340.048C741.617 338.891 740.681 337.953 739.527 337.953C738.372 337.953 737.437 338.891 737.437 340.048C737.437 341.206 738.372 342.144 739.527 342.144Z" fill="#2D5967"/>
<path id="Vector_96" d="M710.264 293.572H693.542V310.524H710.454L710.264 293.572ZM707.603 307.667H696.202V296.238H707.603V307.667Z" fill="#2D5967"/>
<path id="Vector_97" d="M729.267 293.572H712.355V310.524H729.267V293.572ZM726.607 307.667H715.206V296.238H726.607V307.667Z" fill="#2D5967"/>
<path id="Vector_98" d="M710.264 312.619H693.542V329.571H710.454L710.264 312.619ZM707.603 326.714H696.202V315.286H707.603V326.714Z" fill="#2D5967"/>
<path id="Vector_99" d="M729.267 312.619H712.355V329.571H729.267V312.619ZM726.607 326.714H715.206V315.286H726.607V326.714Z" fill="#2D5967"/>
<path id="Vector_100" d="M748.27 293.572H731.357V310.524H748.27V293.572ZM745.609 307.667H734.208V296.238H745.609V307.667Z" fill="#2D5967"/>
<path id="Vector_101" d="M748.27 312.619H731.357V329.571H748.27V312.619ZM745.609 326.714H734.208V315.286H745.609V326.714Z" fill="#2D5967"/>
</g>
</g>
</g>
<g id="Icon Text Label_6">
<text id="IconLabel_6" fill="black" xml:space="preserve" style="white-space: pre" font-family="Oracle Sans" font-size="16" letter-spacing="0em"><tspan x="691.547" y="378.816">worker4</tspan></text>
</g>
</g>
<g id="Virtual Machine VM_7">
<g id="Virtual-Machine-VM_7">
<g id="Group_25">
<g id="Group_26">
<path id="Vector_102" d="M847.133 360.048C844.853 360.048 842.952 358.143 842.952 355.857V286.143C842.952 283.857 844.853 281.952 847.133 281.952H916.872C919.152 281.952 921.052 283.857 921.052 286.143V356.048C921.052 358.333 919.152 360.238 916.872 360.238L847.133 360.048Z" fill="white"/>
<path id="Vector_103" d="M916.679 282.905C918.39 282.905 919.91 284.429 919.91 286.143V356.048C919.91 357.762 918.39 359.286 916.679 359.286H847.131C845.42 359.095 843.9 357.571 843.9 355.857V286.143C843.9 284.429 845.42 282.905 847.131 282.905H916.679ZM916.679 281H847.131C844.28 281 842 283.286 842 286.143V356.048C842 358.714 844.28 361 847.131 361H916.869C919.72 361 922 358.714 922 355.857V286.143C921.81 283.286 919.53 281 916.679 281Z" fill="white"/>
</g>
<g id="Group_27">
<path id="Vector_104" d="M916.68 282.905H847.131C845.421 282.905 843.901 284.429 843.901 286.143V356.048C843.901 357.572 845.421 359.096 847.131 359.096H916.87C918.58 359.096 920.1 357.572 920.1 355.858V286.143C919.91 284.429 918.39 282.905 916.68 282.905ZM917.06 355.858C917.06 356.048 916.87 356.239 916.68 356.239H847.131C846.941 356.239 846.751 356.048 846.751 355.858V286.143C846.751 285.953 846.941 285.763 847.131 285.763H916.87C917.06 285.763 917.25 285.953 917.25 286.143L917.06 355.858Z" fill="#2D5967"/>
<path id="Vector_105" d="M854.542 348.43H909.839V331.477H854.542V348.43ZM857.202 334.335H906.798V345.763H857.202V334.335Z" fill="#2D5967"/>
<path id="Vector_106" d="M900.527 342.144C901.681 342.144 902.617 341.206 902.617 340.048C902.617 338.891 901.681 337.953 900.527 337.953C899.372 337.953 898.437 338.891 898.437 340.048C898.437 341.206 899.372 342.144 900.527 342.144Z" fill="#2D5967"/>
<path id="Vector_107" d="M871.264 293.572H854.542V310.524H871.454L871.264 293.572ZM868.603 307.667H857.202V296.238H868.603V307.667Z" fill="#2D5967"/>
<path id="Vector_108" d="M890.267 293.572H873.355V310.524H890.267V293.572ZM887.607 307.667H876.206V296.238H887.607V307.667Z" fill="#2D5967"/>
<path id="Vector_109" d="M871.264 312.619H854.542V329.571H871.454L871.264 312.619ZM868.603 326.714H857.202V315.286H868.603V326.714Z" fill="#2D5967"/>
<path id="Vector_110" d="M890.267 312.619H873.355V329.571H890.267V312.619ZM887.607 326.714H876.206V315.286H887.607V326.714Z" fill="#2D5967"/>
<path id="Vector_111" d="M909.27 293.572H892.357V310.524H909.27V293.572ZM906.609 307.667H895.208V296.238H906.609V307.667Z" fill="#2D5967"/>
<path id="Vector_112" d="M909.27 312.619H892.357V329.571H909.27V312.619ZM906.609 326.714H895.208V315.286H906.609V326.714Z" fill="#2D5967"/>
</g>
</g>
</g>
<g id="Icon Text Label_7">
<text id="IconLabel_7" fill="black" xml:space="preserve" style="white-space: pre" font-family="Oracle Sans" font-size="16" letter-spacing="0em"><tspan x="852.977" y="378.816">worker5</tspan></text>
</g>
</g>
<g id="Virtual Machine VM_8">
<g id="Virtual-Machine-VM_8">
<g id="Group_28">
<g id="Group_29">
<path id="Vector_113" d="M974.133 360.048C971.853 360.048 969.952 358.143 969.952 355.857V286.143C969.952 283.857 971.853 281.952 974.133 281.952H1043.87C1046.15 281.952 1048.05 283.857 1048.05 286.143V356.048C1048.05 358.333 1046.15 360.238 1043.87 360.238L974.133 360.048Z" fill="white"/>
<path id="Vector_114" d="M1043.68 282.905C1045.39 282.905 1046.91 284.429 1046.91 286.143V356.048C1046.91 357.762 1045.39 359.286 1043.68 359.286H974.131C972.42 359.095 970.9 357.571 970.9 355.857V286.143C970.9 284.429 972.42 282.905 974.131 282.905H1043.68ZM1043.68 281H974.131C971.28 281 969 283.286 969 286.143V356.048C969 358.714 971.28 361 974.131 361H1043.87C1046.72 361 1049 358.714 1049 355.857V286.143C1048.81 283.286 1046.53 281 1043.68 281Z" fill="white"/>
</g>
<g id="Group_30">
<path id="Vector_115" d="M1043.68 282.905H974.131C972.421 282.905 970.901 284.429 970.901 286.143V356.048C970.901 357.572 972.421 359.096 974.131 359.096H1043.87C1045.58 359.096 1047.1 357.572 1047.1 355.858V286.143C1046.91 284.429 1045.39 282.905 1043.68 282.905ZM1044.06 355.858C1044.06 356.048 1043.87 356.239 1043.68 356.239H974.131C973.941 356.239 973.751 356.048 973.751 355.858V286.143C973.751 285.953 973.941 285.763 974.131 285.763H1043.87C1044.06 285.763 1044.25 285.953 1044.25 286.143L1044.06 355.858Z" fill="#2D5967"/>
<path id="Vector_116" d="M981.542 348.43H1036.84V331.477H981.542V348.43ZM984.202 334.335H1033.8V345.763H984.202V334.335Z" fill="#2D5967"/>
<path id="Vector_117" d="M1027.53 342.144C1028.68 342.144 1029.62 341.206 1029.62 340.048C1029.62 338.891 1028.68 337.953 1027.53 337.953C1026.37 337.953 1025.44 338.891 1025.44 340.048C1025.44 341.206 1026.37 342.144 1027.53 342.144Z" fill="#2D5967"/>
<path id="Vector_118" d="M998.264 293.572H981.542V310.524H998.454L998.264 293.572ZM995.603 307.667H984.202V296.238H995.603V307.667Z" fill="#2D5967"/>
<path id="Vector_119" d="M1017.27 293.572H1000.36V310.524H1017.27V293.572ZM1014.61 307.667H1003.21V296.238H1014.61V307.667Z" fill="#2D5967"/>
<path id="Vector_120" d="M998.264 312.619H981.542V329.571H998.454L998.264 312.619ZM995.603 326.714H984.202V315.286H995.603V326.714Z" fill="#2D5967"/>
<path id="Vector_121" d="M1017.27 312.619H1000.36V329.571H1017.27V312.619ZM1014.61 326.714H1003.21V315.286H1014.61V326.714Z" fill="#2D5967"/>
<path id="Vector_122" d="M1036.27 293.572H1019.36V310.524H1036.27V293.572ZM1033.61 307.667H1022.21V296.238H1033.61V307.667Z" fill="#2D5967"/>
<path id="Vector_123" d="M1036.27 312.619H1019.36V329.571H1036.27V312.619ZM1033.61 326.714H1022.21V315.286H1033.61V326.714Z" fill="#2D5967"/>
</g>
</g>
</g>
<g id="Icon Text Label_8">
<text id="IconLabel_8" fill="black" xml:space="preserve" style="white-space: pre" font-family="Oracle Sans" font-size="16" letter-spacing="0em"><tspan x="979.656" y="378.816">worker6</tspan></text>
</g>
</g>
<g id="DNS">
<g id="Domain-Name-System-DNS">
<g id="Group_31">
<g id="Group_32">
<g id="Group_33">
<path id="Vector_124" d="M657.253 645.043C636.938 645.043 620.399 628.504 620.399 608.19C620.399 587.875 636.938 571.336 657.253 571.336C675.051 571.336 690.332 583.92 693.567 601.538C696.444 602.437 698.601 605.133 698.601 608.369C698.601 611.605 696.624 614.122 693.567 615.201C690.332 632.459 675.23 645.043 657.253 645.043Z" fill="white"/>
<path id="Vector_125" d="M657.253 572.234C675.051 572.234 689.792 585.178 692.669 602.077C695.365 602.796 697.522 605.133 697.522 608.189C697.522 611.066 695.365 613.583 692.669 614.302C689.972 631.201 675.051 644.145 657.253 644.145C637.478 644.145 621.298 627.965 621.298 608.189C621.298 588.414 637.478 572.234 657.253 572.234ZM657.253 570.437C636.399 570.437 619.5 587.336 619.5 608.189C619.5 629.043 636.399 645.942 657.253 645.942C675.41 645.942 690.871 633.178 694.287 615.56C697.343 614.302 699.32 611.425 699.32 608.189C699.32 604.953 697.163 601.897 694.287 600.819C690.871 583.201 675.41 570.437 657.253 570.437Z" fill="white"/>
</g>
<g id="Group_34">
<path id="Vector_126" d="M697.702 608.189C697.702 605.313 695.545 602.796 692.848 602.077C689.972 585.178 675.051 572.234 657.253 572.234C637.478 572.234 621.298 588.414 621.298 608.189C621.298 627.965 637.478 644.144 657.253 644.144C675.051 644.144 689.792 631.201 692.669 614.302C695.545 613.583 697.702 611.066 697.702 608.189ZM691.41 611.425C689.612 611.425 688.174 609.987 688.174 608.189C688.174 606.392 689.612 604.953 691.41 604.953C693.208 604.953 694.646 606.392 694.646 608.189C694.646 609.987 693.208 611.425 691.41 611.425ZM689.792 602.257C687.635 602.796 686.017 604.594 685.478 606.751H671.635C671.635 603.695 671.275 600.819 670.736 597.942C673.612 596.684 675.77 593.807 675.77 590.392C675.77 585.897 671.994 582.122 667.5 582.122C666.601 582.122 665.882 582.302 665.163 582.482C663.904 580.144 662.466 577.807 660.669 575.65C675.23 576.909 687.095 588.055 689.792 602.257ZM647.185 619.156C651.68 618.077 655.095 614.302 655.635 609.807H668.579C668.219 620.953 664.264 631.74 657.253 640.369C652.219 634.077 648.803 626.886 647.185 619.156ZM636.219 608.189C636.219 603.695 639.994 599.92 644.489 599.92C648.983 599.92 652.758 603.695 652.758 608.189C652.758 612.684 648.983 616.459 644.489 616.459C639.994 616.459 636.219 612.684 636.219 608.189ZM655.635 606.751C655.095 602.077 651.5 598.302 647.006 597.403C648.624 589.673 652.219 582.482 657.073 576.189C659.051 578.527 660.669 581.223 662.107 583.74C660.129 585.178 658.871 587.695 658.871 590.212C658.871 594.706 662.646 598.482 667.14 598.482H667.32C667.86 601.178 668.219 603.875 668.219 606.751H655.635ZM667.5 584.998C670.376 584.998 672.713 587.335 672.713 590.212C672.713 593.088 670.376 595.425 667.5 595.425C664.624 595.425 662.286 593.088 662.286 590.212C662.286 587.335 664.444 584.998 667.5 584.998ZM654.017 575.47C649.163 581.942 645.747 589.133 644.129 597.043C638.556 597.223 634.062 601.358 633.343 606.751H624.354C625.073 590.392 637.837 577.088 654.017 575.47ZM624.354 609.628H633.343C634.062 615.021 638.556 619.156 644.129 619.335C645.747 627.066 649.163 634.437 654.017 640.909C637.837 639.291 625.073 625.987 624.354 609.628ZM660.669 640.909C667.5 631.92 671.275 620.953 671.635 609.628H685.478C686.017 611.785 687.635 613.403 689.792 614.122C687.095 628.324 675.23 639.47 660.669 640.909Z" fill="#2D5967"/>
</g>
</g>
</g>
</g>
<g id="Icon Text Label_9">
<text id="IconLabel_9" fill="black" xml:space="preserve" style="white-space: pre" font-family="Oracle Sans" font-size="16" letter-spacing="0em"><tspan x="587.172" y="663.816">Remove DNS record</tspan></text>
</g>
</g>
<g id="DNS_2">
<g id="Domain-Name-System-DNS_2">
<g id="Group_35">
<g id="Group_36">
<g id="Group_37">
<path id="Vector_127" d="M657.753 521.043C637.438 521.043 620.899 504.504 620.899 484.19C620.899 463.875 637.438 447.336 657.753 447.336C675.551 447.336 690.832 459.92 694.067 477.538C696.944 478.437 699.101 481.133 699.101 484.369C699.101 487.605 697.124 490.122 694.067 491.201C690.832 508.459 675.73 521.043 657.753 521.043Z" fill="white"/>
<path id="Vector_128" d="M657.753 448.234C675.551 448.234 690.292 461.178 693.169 478.077C695.865 478.796 698.022 481.133 698.022 484.189C698.022 487.066 695.865 489.583 693.169 490.302C690.472 507.201 675.551 520.145 657.753 520.145C637.978 520.145 621.798 503.965 621.798 484.189C621.798 464.414 637.978 448.234 657.753 448.234ZM657.753 446.437C636.899 446.437 620 463.336 620 484.189C620 505.043 636.899 521.942 657.753 521.942C675.91 521.942 691.371 509.178 694.787 491.56C697.843 490.302 699.82 487.425 699.82 484.189C699.82 480.953 697.663 477.897 694.787 476.819C691.371 459.201 675.91 446.437 657.753 446.437Z" fill="white"/>
</g>
<g id="Group_38">
<path id="Vector_129" d="M698.202 484.189C698.202 481.313 696.045 478.796 693.348 478.077C690.472 461.178 675.551 448.234 657.753 448.234C637.978 448.234 621.798 464.414 621.798 484.189C621.798 503.965 637.978 520.144 657.753 520.144C675.551 520.144 690.292 507.201 693.169 490.302C696.045 489.583 698.202 487.066 698.202 484.189ZM691.91 487.425C690.112 487.425 688.674 485.987 688.674 484.189C688.674 482.392 690.112 480.953 691.91 480.953C693.708 480.953 695.146 482.392 695.146 484.189C695.146 485.987 693.708 487.425 691.91 487.425ZM690.292 478.257C688.135 478.796 686.517 480.594 685.978 482.751H672.135C672.135 479.695 671.775 476.819 671.236 473.942C674.112 472.684 676.27 469.807 676.27 466.392C676.27 461.897 672.494 458.122 668 458.122C667.101 458.122 666.382 458.302 665.663 458.482C664.404 456.144 662.966 453.807 661.169 451.65C675.73 452.909 687.595 464.055 690.292 478.257ZM647.685 495.156C652.18 494.077 655.595 490.302 656.135 485.807H669.079C668.719 496.953 664.764 507.74 657.753 516.369C652.719 510.077 649.303 502.886 647.685 495.156ZM636.719 484.189C636.719 479.695 640.494 475.92 644.989 475.92C649.483 475.92 653.258 479.695 653.258 484.189C653.258 488.684 649.483 492.459 644.989 492.459C640.494 492.459 636.719 488.684 636.719 484.189ZM656.135 482.751C655.595 478.077 652 474.302 647.506 473.403C649.124 465.673 652.719 458.482 657.573 452.189C659.551 454.527 661.169 457.223 662.607 459.74C660.629 461.178 659.371 463.695 659.371 466.212C659.371 470.706 663.146 474.482 667.64 474.482H667.82C668.36 477.178 668.719 479.875 668.719 482.751H656.135ZM668 460.998C670.876 460.998 673.213 463.335 673.213 466.212C673.213 469.088 670.876 471.425 668 471.425C665.124 471.425 662.786 469.088 662.786 466.212C662.786 463.335 664.944 460.998 668 460.998ZM654.517 451.47C649.663 457.942 646.247 465.133 644.629 473.043C639.056 473.223 634.562 477.358 633.843 482.751H624.854C625.573 466.392 638.337 453.088 654.517 451.47ZM624.854 485.628H633.843C634.562 491.021 639.056 495.156 644.629 495.335C646.247 503.066 649.663 510.437 654.517 516.909C638.337 515.291 625.573 501.987 624.854 485.628ZM661.169 516.909C668 507.92 671.775 496.953 672.135 485.628H685.978C686.517 487.785 688.135 489.403 690.292 490.122C687.595 504.324 675.73 515.47 661.169 516.909Z" fill="#2D5967"/>
</g>
</g>
</g>
</g>
<g id="Icon Text Label_10">
<text id="IconLabel_10" fill="black" xml:space="preserve" style="white-space: pre" font-family="Oracle Sans" font-size="16" letter-spacing="0em"><tspan x="602.109" y="539.816">Add DNS record</tspan></text>
</g>
</g>
<g id="Events">
<g id="Services/Events">
<g id="Group_39">
<g id="Group_40">
<path id="Vector_130" d="M384.956 578.043V572.033H369.031V554.944C362.286 554.005 356.853 548.559 355.916 541.799H351.982L355.167 547.62H332.684L343.926 527.151L349.359 536.916H355.916C356.853 530.155 362.286 524.709 369.031 523.77V511.188H358.352V517.198H342.239V501.047H358.352V506.681H373.528V524.146C380.272 525.085 385.706 530.531 386.642 537.291H390.015L394.136 530.343H404.628L409.874 539.545L404.628 548.559H394.136L390.389 541.986H387.017C386.08 548.747 380.647 554.193 373.902 555.132V567.526H385.143V561.892H401.256V578.043H384.956Z" fill="white"/>
<path id="Vector_131" d="M357.417 501.986V507.619H372.593V524.896C379.712 525.648 385.145 531.094 385.895 538.23H390.578L394.7 531.281H404.068L408.752 539.544L404.068 547.807H394.7L390.953 541.234H386.082C385.333 548.371 379.899 553.817 372.78 554.568V568.652H385.895V563.018H400.133V577.103H385.895V571.094H369.97V554.192C362.85 553.629 357.23 547.995 356.667 540.859H350.297L353.482 546.68H334.185L343.927 529.216L348.799 538.042H356.667C357.417 530.906 362.85 525.46 369.97 524.709V510.249H357.417V516.258H343.178V501.986H357.417ZM359.29 500.108H357.417H343.178H341.304V501.986V516.258V518.136H343.178H357.417H359.29V516.258V512.126H368.096V523.206C361.539 524.521 356.293 529.591 354.981 536.352H349.735L345.426 528.464L343.74 525.46L342.241 528.464L332.499 545.929L331 548.746H334.185H353.295H356.48L354.981 545.929L353.295 542.925H354.981C356.293 549.497 361.351 554.756 368.096 556.07V571.281V573.159H369.97H384.021V577.103V578.981H385.895H400.133H402.007V577.103V562.831V560.953H400.133H385.895H384.021V562.831V566.587H374.653V555.882C381.211 554.568 386.457 549.31 387.768 542.737H389.829L393.014 548.371L393.576 549.31H394.7H404.068H405.192L405.754 548.371L410.438 540.108L411 539.169L410.438 538.23L405.754 529.967L405.192 529.028H404.068H394.7H393.576L393.014 530.155L389.454 536.164H387.581C386.269 529.591 381.023 524.333 374.466 523.018V507.619V505.741H372.593H359.29V501.986V500.108Z" fill="white"/>
</g>
<g id="Group_41">
<path id="Vector_132" d="M385.893 540.858H390.765L394.512 547.431H403.879L408.563 539.168L404.067 531.093H394.699L390.577 538.041H385.893C385.144 530.905 379.711 525.459 372.591 524.708V507.619H357.416V501.985H343.177V516.257H357.416V510.248H369.968V524.708C362.849 525.459 357.228 531.093 356.666 538.041H348.61L343.739 529.215L333.996 546.68H353.107L349.922 540.858H356.292C357.041 547.994 362.474 553.44 369.594 554.191V571.093H385.519V577.102H399.758V562.83H385.519V568.464H372.404V554.379C379.711 553.628 385.331 547.994 385.893 540.858ZM345.987 513.44V504.802H354.605V513.44H345.987ZM338.868 544.051L343.739 535.036L348.61 544.051H338.868ZM397.322 565.647V574.285H388.704V565.647H397.322ZM359.289 539.544C359.289 532.971 364.722 527.525 371.28 527.525C377.837 527.525 383.27 532.971 383.27 539.544C383.27 546.116 377.837 551.562 371.28 551.562C364.722 551.562 359.289 546.116 359.289 539.544ZM393.013 539.356L396.198 533.91H402.381L405.378 539.356L402.193 544.802H396.011L393.013 539.356Z" fill="#2D5967"/>
</g>
</g>
</g>
<g id="Icon Text Label_11">
<text id="IconLabel_11" fill="black" xml:space="preserve" style="white-space: pre" font-family="Oracle Sans" font-size="16" letter-spacing="0em"><tspan x="346.828" y="596.816">Events</tspan></text>
</g>
</g>
<path id="Vector 57" d="M411 539H433" stroke="#312D2A" stroke-width="2"/>
<path id="Vector 59" d="M802.707 516.207C803.098 515.817 803.098 515.183 802.707 514.793L796.343 508.429C795.953 508.038 795.319 508.038 794.929 508.429C794.538 508.819 794.538 509.453 794.929 509.843L800.586 515.5L794.929 521.157C794.538 521.547 794.538 522.181 794.929 522.571C795.319 522.962 795.953 522.962 796.343 522.571L802.707 516.207ZM752 474H753V473H752V474ZM752 515.5H751V516.5H752V515.5ZM699 475H752V473H699V475ZM751 474V515.5H753V474H751ZM752 516.5H802V514.5H752V516.5Z" fill="#312D2A"/>
<path id="Vector 61" d="M1202.29 314.793C1201.9 315.183 1201.9 315.817 1202.29 316.207L1208.66 322.571C1209.05 322.962 1209.68 322.962 1210.07 322.571C1210.46 322.181 1210.46 321.547 1210.07 321.157L1204.41 315.5L1210.07 309.843C1210.46 309.453 1210.46 308.819 1210.07 308.429C1209.68 308.038 1209.05 308.038 1208.66 308.429L1202.29 314.793ZM1224 538V539H1225V538H1224ZM1224 315.5H1225V314.5H1224V315.5ZM1083 539H1224V537H1083V539ZM1225 538V315.5H1223V538H1225ZM1224 314.5H1203V316.5H1224V314.5Z" fill="#312D2A"/>
<path id="Vector 60" d="M802.707 568.293C803.098 568.683 803.098 569.317 802.707 569.707L796.343 576.071C795.953 576.462 795.319 576.462 794.929 576.071C794.538 575.681 794.538 575.047 794.929 574.657L800.586 569L794.929 563.343C794.538 562.953 794.538 562.319 794.929 561.929C795.319 561.538 795.953 561.538 796.343 561.929L802.707 568.293ZM752 610.5H753V611.5H752V610.5ZM752 569H751V568H752V569ZM699 609.5H752V611.5H699V609.5ZM751 610.5V569H753V610.5H751ZM752 568H802V570H752V568Z" fill="#312D2A"/>
<path id="Vector 58" d="M617.707 475.707C618.098 475.317 618.098 474.683 617.707 474.293L611.343 467.929C610.953 467.538 610.319 467.538 609.929 467.929C609.538 468.319 609.538 468.953 609.929 469.343L615.586 475L609.929 480.657C609.538 481.047 609.538 481.681 609.929 482.071C610.319 482.462 610.953 482.462 611.343 482.071L617.707 475.707ZM617.707 610.707C618.098 610.317 618.098 609.683 617.707 609.293L611.343 602.929C610.953 602.538 610.319 602.538 609.929 602.929C609.538 603.319 609.538 603.953 609.929 604.343L615.586 610L609.929 615.657C609.538 616.047 609.538 616.681 609.929 617.071C610.319 617.462 610.953 617.462 611.343 617.071L617.707 610.707ZM433 475L433 474L432 474L432 475L433 475ZM433 610L432 610L432 611L433 611L433 610ZM617 474L433 474L433 476L617 476L617 474ZM432 475L432 610L434 610L434 475L432 475ZM433 611L617 611L617 609L433 609L433 611Z" fill="#312D2A"/>
<g id="Group 110">
<rect id="Rectangle 29" x="1171" y="301" width="11" height="74" fill="#F5F4F2"/>
<g id="DNS_3">
<g id="Domain-Name-System-DNS_3">
<g id="Group_42">
<g id="Group_43">
<g id="Group_44">
<path id="Vector_133" d="M1175.88 336.522C1165.72 336.522 1157.45 328.252 1157.45 318.095C1157.45 307.937 1165.72 299.668 1175.88 299.668C1184.78 299.668 1192.42 305.96 1194.03 314.769C1195.47 315.218 1196.55 316.567 1196.55 318.185C1196.55 319.803 1195.56 321.061 1194.03 321.6C1192.42 330.23 1184.87 336.522 1175.88 336.522Z" fill="white"/>
<path id="Vector_134" d="M1175.88 300.117C1184.78 300.117 1192.15 306.589 1193.58 315.038C1194.93 315.398 1196.01 316.567 1196.01 318.095C1196.01 319.533 1194.93 320.791 1193.58 321.151C1192.24 329.6 1184.78 336.072 1175.88 336.072C1165.99 336.072 1157.9 327.982 1157.9 318.095C1157.9 308.207 1165.99 300.117 1175.88 300.117ZM1175.88 299.218C1165.45 299.218 1157 307.668 1157 318.095C1157 328.522 1165.45 336.971 1175.88 336.971C1184.96 336.971 1192.69 330.589 1194.39 321.78C1195.92 321.151 1196.91 319.713 1196.91 318.095C1196.91 316.477 1195.83 314.949 1194.39 314.409C1192.69 305.6 1184.96 299.218 1175.88 299.218Z" fill="white"/>
</g>
<g id="Group_45">
<path id="Vector_135" d="M1196.1 318.095C1196.1 316.657 1195.02 315.398 1193.67 315.039C1192.24 306.589 1184.78 300.117 1175.88 300.117C1165.99 300.117 1157.9 308.207 1157.9 318.095C1157.9 327.982 1165.99 336.072 1175.88 336.072C1184.78 336.072 1192.15 329.6 1193.58 321.151C1195.02 320.791 1196.1 319.533 1196.1 318.095ZM1192.96 319.713C1192.06 319.713 1191.34 318.994 1191.34 318.095C1191.34 317.196 1192.06 316.477 1192.96 316.477C1193.85 316.477 1194.57 317.196 1194.57 318.095C1194.57 318.994 1193.85 319.713 1192.96 319.713ZM1192.15 315.128C1191.07 315.398 1190.26 316.297 1189.99 317.376H1183.07C1183.07 315.848 1182.89 314.409 1182.62 312.971C1184.06 312.342 1185.13 310.904 1185.13 309.196C1185.13 306.949 1183.25 305.061 1181 305.061C1180.55 305.061 1180.19 305.151 1179.83 305.241C1179.2 304.072 1178.48 302.904 1177.58 301.825C1184.87 302.454 1190.8 308.027 1192.15 315.128ZM1170.84 323.578C1173.09 323.039 1174.8 321.151 1175.07 318.904H1181.54C1181.36 324.477 1179.38 329.87 1175.88 334.185C1173.36 331.039 1171.65 327.443 1170.84 323.578ZM1165.36 318.095C1165.36 315.848 1167.25 313.96 1169.49 313.96C1171.74 313.96 1173.63 315.848 1173.63 318.095C1173.63 320.342 1171.74 322.23 1169.49 322.23C1167.25 322.23 1165.36 320.342 1165.36 318.095ZM1175.07 317.376C1174.8 315.039 1173 313.151 1170.75 312.701C1171.56 308.836 1173.36 305.241 1175.79 302.095C1176.78 303.263 1177.58 304.612 1178.3 305.87C1177.31 306.589 1176.69 307.848 1176.69 309.106C1176.69 311.353 1178.57 313.241 1180.82 313.241H1180.91C1181.18 314.589 1181.36 315.937 1181.36 317.376H1175.07ZM1181 306.499C1182.44 306.499 1183.61 307.668 1183.61 309.106C1183.61 310.544 1182.44 311.713 1181 311.713C1179.56 311.713 1178.39 310.544 1178.39 309.106C1178.39 307.668 1179.47 306.499 1181 306.499ZM1174.26 301.735C1171.83 304.971 1170.12 308.567 1169.31 312.522C1166.53 312.612 1164.28 314.679 1163.92 317.376H1159.43C1159.79 309.196 1166.17 302.544 1174.26 301.735ZM1159.43 318.814H1163.92C1164.28 321.51 1166.53 323.578 1169.31 323.668C1170.12 327.533 1171.83 331.218 1174.26 334.454C1166.17 333.645 1159.79 326.994 1159.43 318.814ZM1177.58 334.454C1181 329.96 1182.89 324.477 1183.07 318.814H1189.99C1190.26 319.892 1191.07 320.701 1192.15 321.061C1190.8 328.162 1184.87 333.735 1177.58 334.454Z" fill="#2D5967"/>
</g>
</g>
</g>
</g>
<g id="Icon Text Label_12">
<text id="IconLabel_12" fill="black" xml:space="preserve" style="white-space: pre" font-family="Oracle Sans" font-size="16" letter-spacing="0em"><tspan x="1143.08" y="354.816">VCN DNS</tspan></text>
<text id="IconLabel_13" fill="black" xml:space="preserve" style="white-space: pre" font-family="Oracle Sans" font-size="16" letter-spacing="0em"><tspan x="1148.37" y="370.816">resolver</tspan></text>
</g>
</g>
</g>
<g id="Group 111">
<g id="Text Heading">
<rect x="801.5" y="467.5" width="287" height="158" rx="3.5" fill="white"/>
<text id="Neutral Group Heading H3" fill="#312D2A" xml:space="preserve" style="white-space: pre" font-family="Oracle Sans" font-size="16" font-weight="600" letter-spacing="0em"><tspan x="879.711" y="488.816">Private DNS Zone</tspan></text>
<rect x="801.5" y="467.5" width="287" height="158" rx="3.5" stroke="#9E9892"/>
</g>
<text id="(example.com)" fill="#312D2A" xml:space="preserve" style="white-space: pre" font-family="Oracle Sans" font-size="16" font-weight="600" letter-spacing="0em"><tspan x="890.242" y="504.816">(example.com)</tspan></text>
<text id="Records:" fill="#312D2A" xml:space="preserve" style="white-space: pre" font-family="Oracle Sans" font-size="16" font-weight="600" letter-spacing="0em"><tspan x="913.211" y="520.816">Records:</tspan></text>
<text id="VM1.example.com 30 A 10.0.0.10" fill="#312D2A" xml:space="preserve" style="white-space: pre" font-family="Oracle Sans" font-size="16" font-weight="600" letter-spacing="0em"><tspan x="825.641" y="552.816">VM1.example.com 30 A 10.0.0.10</tspan></text>
<text id="VM2.example.com 30 A 10.0.0.31" fill="#312D2A" xml:space="preserve" style="white-space: pre" font-family="Oracle Sans" font-size="16" font-weight="600" letter-spacing="0em"><tspan x="824.516" y="568.816">VM2.example.com 30 A 10.0.0.31</tspan></text>
<text id="..." fill="#312D2A" xml:space="preserve" style="white-space: pre" font-family="Oracle Sans" font-size="16" font-weight="600" letter-spacing="0em"><tspan x="938.789" y="592.816">...</tspan></text>
<text id="worker6.example.com 30 A 10.0.1.55" fill="#312D2A" xml:space="preserve" style="white-space: pre" font-family="Oracle Sans" font-size="16" font-weight="600" letter-spacing="0em"><tspan x="812.125" y="608.816">worker6.example.com 30 A 10.0.1.55</tspan></text>
</g>
<g id="Connector Line Label">
<rect width="84" height="14" transform="translate(488 468)" fill="#F5F4F2"/>
<text id="Line Label" fill="#312D2A" xml:space="preserve" style="white-space: pre" font-family="Oracle Sans" font-size="14" letter-spacing="0em"><tspan x="492.211" y="480.089">On instance</tspan></text>
</g>
<g id="Connector Line Label_2">
<rect width="51" height="14" transform="translate(505 484)" fill="#F5F4F2"/>
<text id="Line Label_2" fill="#312D2A" xml:space="preserve" style="white-space: pre" font-family="Oracle Sans" font-size="14" letter-spacing="0em"><tspan x="509.268" y="496.089">launch</tspan></text>
</g>
<g id="Connector Line Label_3">
<rect width="69" height="14" transform="translate(1124 532)" fill="#F5F4F2"/>
<text id="Line Label_3" fill="#312D2A" xml:space="preserve" style="white-space: pre" font-family="Oracle Sans" font-size="14" letter-spacing="0em"><tspan x="1128.36" y="544.089">Associate</tspan></text>
</g>
<g id="Connector Line Label_4">
<rect width="84" height="14" transform="translate(487 604)" fill="#F5F4F2"/>
<text id="Line Label_4" fill="#312D2A" xml:space="preserve" style="white-space: pre" font-family="Oracle Sans" font-size="14" letter-spacing="0em"><tspan x="491.211" y="616.089">On instance</tspan></text>
</g>
<g id="Connector Line Label_5">
<rect width="70" height="14" transform="translate(494 620)" fill="#F5F4F2"/>
<text id="Line Label_5" fill="#312D2A" xml:space="preserve" style="white-space: pre" font-family="Oracle Sans" font-size="14" letter-spacing="0em"><tspan x="498.389" y="632.089">terminate</tspan></text>
</g>
<g id="Gateway">
<rect id="Rectangle 699" x="48" y="152" width="12" height="76" fill="#F5F4F2"/>
<g id="Icon Master_4">
<g id="Service-Gateway">
<g id="Group 37">
<path id="Vector_136" d="M56.146 191.707C53.4347 191.712 50.7595 191.086 48.3328 189.879C45.9062 188.672 43.7949 186.916 42.1666 184.752C41.2183 184.102 40.3344 183.363 39.527 182.544C39.1311 182.18 38.7676 181.782 38.4407 181.355C38.2882 181.165 37.6307 180.29 37.4878 180.014C37.3449 179.738 37.3067 179.728 37.221 179.576L36.9637 179.157C36.8493 178.958 36.7255 178.767 36.6206 178.567C36.5158 178.368 36.4586 178.253 36.3824 178.092L36.1632 177.626C36.0679 177.435 35.9726 177.245 35.8869 177.045C35.8011 176.845 35.7439 176.684 35.6772 176.493L35.4676 176.008C35.3914 175.827 35.3247 175.637 35.258 175.437C35.1913 175.237 35.1436 175 35.0864 174.781L34.953 174.267C34.953 174.105 34.8673 173.934 34.8291 173.763C34.791 173.592 34.7243 173.154 34.6862 172.811L34.629 172.383C34.629 172.25 34.5814 172.126 34.5623 171.993C34.5052 171.441 34.4766 170.842 34.4766 170.243C34.4816 165.591 36.3345 161.132 39.6288 157.842C42.9231 154.553 47.3896 152.703 52.0484 152.698C52.6106 152.698 53.2014 152.698 53.7923 152.784L54.1448 152.832H54.3545C54.7261 152.832 55.1073 152.927 55.4789 153.003L55.9173 153.174L56.1079 153.222C56.4604 153.307 56.7749 153.383 57.0608 153.479L57.5563 153.64L57.7469 153.707L58.6236 154.03C58.8237 154.106 59.0143 154.202 59.2048 154.287H59.3097L60.1196 154.677L60.7676 155.039C61.0345 155.191 61.2917 155.343 61.5395 155.505L62.1684 155.933L62.8641 156.456C63.1713 156.682 63.4612 156.93 63.7312 157.199C64.559 157.938 65.3152 158.753 65.9896 159.634C69.1033 161.739 71.4588 164.785 72.7098 168.325C73.9608 171.866 74.0414 175.713 72.9397 179.303C71.838 182.892 69.6122 186.034 66.5894 188.267C63.5665 190.499 59.9061 191.705 56.146 191.707Z" fill="white"/>
<path id="Vector_137" d="M52.0484 153.173C52.6149 153.173 53.181 153.202 53.7446 153.259L54.2877 153.335C54.6594 153.383 55.0215 153.43 55.3836 153.506C55.6028 153.506 55.8124 153.611 56.0316 153.658L56.9845 153.896L57.6325 154.125C57.9279 154.229 58.2138 154.324 58.4996 154.439L59.1571 154.734L59.9481 155.114C60.1672 155.228 60.3769 155.352 60.5865 155.476C60.7962 155.599 61.0916 155.771 61.3298 155.923C61.568 156.075 61.7396 156.199 61.9397 156.341C62.1398 156.484 62.3971 156.674 62.6258 156.855L63.4453 157.55C64.2757 158.293 65.032 159.115 65.7037 160.004C67.7647 161.389 69.4984 163.206 70.784 165.329C72.0695 167.452 72.876 169.828 73.1472 172.294C73.4184 174.76 73.1479 177.255 72.3544 179.605C71.5608 181.956 70.2635 184.105 68.5527 185.904C66.8419 187.702 64.7588 189.107 62.4487 190.019C60.1385 190.932 57.6568 191.33 55.1766 191.187C52.6964 191.044 50.2774 190.362 48.088 189.19C45.8987 188.017 43.9917 186.382 42.5001 184.399C41.5522 183.759 40.6711 183.026 39.87 182.211C39.87 182.211 39.0124 181.259 38.8218 181.05C38.6312 180.841 38.0214 179.994 37.8689 179.737C37.7164 179.48 37.6116 179.318 37.4877 179.109C37.3639 178.9 37.1637 178.595 37.0208 178.338C36.8779 178.081 36.7921 177.872 36.6873 177.644C36.5825 177.415 36.4205 177.12 36.3061 176.845C36.1918 176.569 36.1155 176.331 36.0202 176.074C35.925 175.817 35.8201 175.56 35.7344 175.294C35.6486 175.027 35.5819 174.694 35.5057 174.399C35.4294 174.104 35.3723 173.914 35.3151 173.667C35.2579 173.419 35.2007 172.944 35.1531 172.582C35.1531 172.382 35.0769 172.183 35.0578 171.983C34.9879 171.412 34.953 170.832 34.953 170.242C34.968 165.719 36.774 161.387 39.9767 158.189C43.1795 154.991 47.519 153.188 52.0484 153.173ZM52.0484 152.222C47.2663 152.237 42.6844 154.14 39.3029 157.516C35.9215 160.892 34.0151 165.467 34.0001 170.242C33.9985 170.855 34.0303 171.468 34.0953 172.078C34.0953 172.221 34.0953 172.363 34.1525 172.497C34.2097 172.63 34.1525 172.639 34.1525 172.715V172.915C34.1525 173.22 34.2288 173.534 34.2955 173.867C34.3622 174.2 34.3812 174.219 34.4289 174.399C34.4765 174.58 34.4289 174.561 34.4956 174.637L34.5527 174.885C34.6099 175.122 34.6671 175.351 34.7433 175.579C34.8196 175.807 34.8767 175.979 34.953 176.179L35.0387 176.407L35.1245 176.645C35.1876 176.842 35.2607 177.036 35.3437 177.225C35.4294 177.434 35.5343 177.644 35.6295 177.844L35.7439 178.062L35.8487 178.291C35.9217 178.463 36.0044 178.632 36.0965 178.795C36.2108 179.004 36.3347 179.204 36.4586 179.413L36.5825 179.613L36.7063 179.813C36.8016 179.975 36.8874 180.127 36.9922 180.279C37.097 180.431 37.8498 181.459 38.0214 181.659C38.3648 182.107 38.7441 182.527 39.1554 182.915C39.9531 183.726 40.8275 184.459 41.7664 185.103C43.3634 187.136 45.3801 188.803 47.6794 189.989C49.9787 191.176 52.5068 191.854 55.092 191.979C57.6772 192.103 60.2589 191.671 62.6619 190.711C65.0649 189.751 67.2329 188.286 69.0186 186.416C70.8044 184.545 72.166 182.313 73.0112 179.87C73.8563 177.428 74.1651 174.832 73.9167 172.26C73.6682 169.688 72.8683 167.199 71.5712 164.963C70.2741 162.727 68.5102 160.796 66.3993 159.3C65.7155 158.41 64.9499 157.585 64.1123 156.836C63.842 156.574 63.5556 156.33 63.2547 156.104L62.5305 155.561L61.8825 155.124C61.6347 154.962 61.3679 154.81 61.1106 154.657C60.8533 154.505 60.6628 154.391 60.4341 154.277L59.5955 153.868L59.4811 153.82L58.8999 153.563C58.6045 153.44 58.2995 153.335 58.0041 153.23L57.7659 153.173L57.2513 152.992C56.9368 152.897 56.6224 152.821 56.2984 152.745H56.2317L56.0411 152.678L55.5742 152.574C55.1835 152.498 54.7928 152.441 54.4116 152.393H54.2305L53.8303 152.307C53.23 152.222 52.6296 152.222 52.0484 152.222Z" fill="white"/>
<path id="Vector_138" d="M38.3648 177.854C37.0588 175.53 36.3761 172.908 36.3827 170.243C36.3846 167.576 37.0691 164.953 38.3714 162.624C39.6736 160.296 41.5503 158.338 43.8233 156.937C46.0964 155.535 48.6904 154.738 51.3591 154.619C54.0278 154.5 56.6827 155.064 59.0717 156.257C60.6126 156.497 62.1152 156.939 63.5409 157.57C60.2668 154.437 55.8804 152.731 51.3466 152.828C46.8128 152.924 42.503 154.815 39.3653 158.084C36.2277 161.353 34.5192 165.732 34.6157 170.259C34.7122 174.785 36.6058 179.088 39.8799 182.221C39.1846 180.838 38.6752 179.37 38.3648 177.854Z" fill="#2D5967"/>
<path id="Vector_139" d="M56.1462 157.084C52.7672 157.093 49.4668 158.101 46.6612 159.982C43.8556 161.862 41.6706 164.529 40.3819 167.648C39.0932 170.767 38.7585 174.197 39.42 177.505C40.0815 180.813 41.7096 183.852 44.0989 186.237C46.4882 188.623 49.5316 190.249 52.8452 190.909C56.1588 191.57 59.5941 191.235 62.7176 189.949C65.8412 188.662 68.5131 186.48 70.3962 183.679C72.2794 180.878 73.2893 177.583 73.2988 174.209C73.2988 169.667 71.4916 165.311 68.2749 162.1C65.0582 158.888 60.6953 157.084 56.1462 157.084ZM56.1462 189.803C53.0455 189.803 50.0144 188.885 47.4364 187.165C44.8583 185.444 42.8491 183 41.663 180.139C40.4768 177.279 40.1669 174.131 40.7726 171.095C41.3782 168.059 42.8721 165.27 45.0653 163.082C47.2585 160.893 50.0525 159.404 53.0939 158.801C56.1353 158.198 59.2874 158.509 62.1516 159.695C65.0157 160.881 67.4633 162.889 69.1846 165.464C70.9059 168.039 71.8236 171.066 71.8217 174.162C71.8167 178.31 70.1632 182.287 67.2243 185.219C64.2854 188.152 60.3012 189.8 56.1462 189.803Z" fill="#2D5967"/>
<path id="Vector_140" d="M60.0332 183.02L59.0326 182.012L56.86 184.181V164.315L59.0326 166.484L60.0332 165.476L56.1453 161.594L52.2574 165.476L53.2675 166.484L55.4401 164.315V184.181L53.2675 182.012L52.2574 183.02L56.1453 186.902L60.0332 183.02Z" fill="#2D5967"/>
<path id="Vector_141" d="M51.4852 178.042L55.3731 174.161L51.4852 170.279L50.4751 171.278L52.6478 173.447H43.4998V174.865H52.6478L50.4751 177.034L51.4852 178.042Z" fill="#2D5967"/>
<path id="Vector_142" d="M68.7911 173.447H59.6526L61.8157 171.278L60.8152 170.279L56.9177 174.161L60.8152 178.042L61.8157 177.034L59.6526 174.865H68.7911V173.447Z" fill="#2D5967"/>
</g>
</g>
<g id="Icon Text Label_13">
<text id="IconLabel_14" fill="black" xml:space="preserve" style="white-space: pre" font-family="Oracle Sans" font-size="16" letter-spacing="0em"><tspan x="27.7891" y="209.816">Service</tspan></text>
<text id="IconLabel_15" fill="black" xml:space="preserve" style="white-space: pre" font-family="Oracle Sans" font-size="16" letter-spacing="0em"><tspan x="23.1172" y="225.816">Gateway</tspan></text>
</g>
</g>
</g>
<g id="Gateway_2">
<rect id="Rectangle 699_2" x="48" y="304" width="12" height="76" fill="#F5F4F2"/>
<g id="Icon Master_5">
<g id="NAT-Gateway">
<g id="Group 28">
<path id="Vector_143" d="M54.1194 343.697C53.5634 343.697 53.0079 343.668 52.4549 343.612H52.1238L51.7928 343.564C51.4713 343.564 51.1592 343.479 50.8471 343.413C50.535 343.346 50.2323 343.261 49.9013 343.185L49.5798 343.1L49.296 342.977C47.7039 342.486 46.1933 341.761 44.8132 340.827L44.4443 340.552L44.1228 340.306L43.5269 339.851L43.1959 339.548L42.9311 339.311C42.723 339.122 42.515 338.932 42.3164 338.733L42.0326 338.421C41.7489 338.118 41.4746 337.815 41.2098 337.474C39.1442 334.935 37.8764 331.839 37.5666 328.579C37.2569 325.318 37.9191 322.039 39.4696 319.155C39.7155 318.691 39.9709 318.274 40.2262 317.876L40.3776 317.658C40.614 317.317 40.8504 316.995 41.0963 316.711L41.3612 316.399C41.5881 316.124 41.834 315.849 42.0894 315.575L42.3826 315.281C42.6474 315.016 42.9122 314.76 43.1959 314.523L43.4418 314.305C43.7728 314.031 44.0849 313.784 44.3876 313.548L44.5673 313.387C44.9266 313.131 45.305 312.894 45.6833 312.667C46.9872 311.906 48.3866 311.323 49.8446 310.933C50.3269 310.81 50.7903 310.706 51.2537 310.63H51.3294L49.7689 309.02L54.1099 304.672L58.4604 309.02L56.8621 310.63H56.9094L57.4011 310.706L57.8646 310.82L58.328 310.943L58.8954 311.085L59.3683 311.227C60.1539 311.485 60.919 311.801 61.657 312.174L62.1205 312.411C62.3191 312.515 62.4988 312.629 62.6785 312.742L63.0662 312.979C63.4634 313.235 63.8417 313.51 64.22 313.784C65.402 314.695 66.4579 315.759 67.3599 316.948C67.6815 317.374 67.9274 317.744 68.1638 318.113L68.2868 318.312C68.4949 318.653 68.6935 319.003 68.8732 319.354L69.0434 319.676C69.2042 320.007 69.3555 320.348 69.4974 320.689L69.6581 321.087C69.7811 321.428 69.904 321.769 70.0081 322.129L70.131 322.508C70.235 322.906 70.3296 323.294 70.4147 323.692L70.462 323.957C70.5565 324.433 70.6259 324.914 70.6701 325.397C70.9451 328.144 70.5357 330.917 69.4784 333.467C68.0245 336.962 65.4127 339.849 62.0826 341.641C61.6665 341.869 61.2882 342.039 60.9099 342.21L60.7586 342.285L60.5316 342.39L59.7655 342.674L59.3872 342.806L58.99 342.948C58.7536 343.024 58.5171 343.072 58.2902 343.138L57.8551 343.242L57.4106 343.346C56.3279 343.57 55.225 343.682 54.1194 343.678V343.697ZM51.424 310.63L51.7455 310.573L52.3792 310.479L52.8994 310.431H52.9656V309.067L51.424 310.63ZM55.9163 310.469L56.5027 310.554L56.8337 310.611L55.2543 309.067V310.422H55.3205V310.374L55.9163 310.469Z" fill="white"/>
<path id="Vector_144" d="M54.1095 305.336L55.7362 306.965L55.7929 307.022L57.8074 309.02L56.8616 309.967L55.8213 308.925L54.7809 307.921V310.877C55.1214 310.877 55.4619 310.877 55.7929 310.933C56.0577 310.933 56.3225 311.009 56.5873 311.047L57.2777 311.151C57.5047 311.199 57.7317 311.265 57.9492 311.322C58.1667 311.379 58.4788 311.445 58.7342 311.521C59.8085 311.853 60.8451 312.298 61.8268 312.847C62.0822 312.989 62.3091 313.14 62.555 313.292L62.7442 313.406C63.132 313.652 63.5008 313.917 63.8602 314.192C65.0344 315.069 66.0843 316.101 66.9812 317.261L67.0379 317.327C67.2933 317.677 67.5392 318.037 67.7661 318.397L67.8891 318.587C68.0877 318.918 68.2769 319.259 68.4565 319.6L68.6173 319.913C68.7781 320.235 68.92 320.566 69.0524 320.86C69.1091 320.983 69.1659 321.116 69.2132 321.239C69.3361 321.58 69.4496 321.911 69.5536 322.252C69.5536 322.385 69.6387 322.508 69.6671 322.631C69.7806 323.01 69.8657 323.389 69.9508 323.777C69.9508 323.863 69.9508 323.948 69.9508 324.033C70.0408 324.497 70.1071 324.965 70.1495 325.435C70.46 328.591 69.8331 331.769 68.3475 334.569C66.8619 337.37 64.5836 339.669 61.7984 341.177H61.7417C61.3918 341.367 61.0229 341.537 60.6635 341.708L60.2852 341.878C59.9921 342.001 59.6989 342.106 59.3962 342.21C59.0936 342.314 58.999 342.361 58.7909 342.418C58.5829 342.475 58.2046 342.579 57.9114 342.646C57.6182 342.712 57.4858 342.769 57.2683 342.807C56.2133 343.023 55.139 343.131 54.0622 343.129C53.5221 343.132 52.9823 343.106 52.4449 343.053L51.9248 342.977C51.5748 342.977 51.2249 342.882 50.875 342.816C50.525 342.75 50.194 342.646 49.8536 342.56L49.3429 342.428C47.7958 341.953 46.3291 341.247 44.9924 340.334C44.8032 340.211 44.633 340.069 44.4533 339.937C44.2736 339.804 43.9615 339.586 43.7345 339.387C43.5075 339.188 43.413 339.103 43.2522 338.951C43.0914 338.8 42.7793 338.535 42.5618 338.307C42.3443 338.08 42.3726 338.099 42.2781 338.004C42.007 337.707 41.7421 337.392 41.4836 337.057C39.5195 334.593 38.321 331.605 38.0369 328.465C37.7528 325.324 38.3955 322.17 39.8853 319.392C40.1123 318.975 40.3582 318.568 40.6135 318.179L40.7838 317.933C41.0013 317.602 41.2377 317.289 41.4742 316.986L41.7295 316.673C41.9565 316.408 42.193 316.134 42.4388 315.878L42.732 315.584C42.9874 315.328 43.2427 315.082 43.517 314.845C43.601 314.768 43.6894 314.695 43.7818 314.628C44.075 314.372 44.3871 314.135 44.7276 313.908L44.9073 313.775C45.2667 313.529 45.626 313.292 46.0043 313.074H46.0705C47.3113 312.351 48.6443 311.799 50.0333 311.435C50.4778 311.322 50.9223 311.218 51.3668 311.142H51.5937C51.868 311.142 52.1423 311.038 52.426 311.009C52.7665 311.009 53.0975 310.943 53.438 310.933V307.921L52.426 308.935L51.3857 309.977L50.4399 309.03L52.426 307.031L52.4828 306.974L54.1095 305.345V305.336ZM54.1095 304.009L53.4474 304.682L51.8207 306.302L51.764 306.359L49.7684 308.348L49.097 309.02L49.7684 309.683L50.4021 310.318C50.2035 310.318 49.9954 310.403 49.7968 310.46C48.314 310.856 46.8895 311.445 45.5598 312.212L45.5125 312.26C45.1248 312.487 44.737 312.743 44.3587 312.998L44.1696 313.131C43.8386 313.377 43.517 313.633 43.2238 313.898L42.9401 314.135C42.6658 314.372 42.401 314.628 42.1078 314.912L42.0416 314.978L41.7295 315.224C41.4836 315.48 41.2377 315.755 40.9729 316.067L40.9067 316.152L40.7081 316.389C40.4717 316.692 40.2352 317.014 39.9704 317.393L39.9231 317.469L39.838 317.63C39.5732 318.037 39.3179 318.464 39.0814 318.909C37.4784 321.866 36.7847 325.231 37.0876 328.582C37.3905 331.933 38.6766 335.119 40.7838 337.739L40.8311 337.796C41.1053 338.137 41.408 338.468 41.6633 338.743L41.7295 338.857L41.9187 339.065C42.1267 339.274 42.3348 339.463 42.5523 339.652L42.6564 339.757L42.8077 339.889L43.1671 340.211L43.7724 340.675L43.9331 340.798L44.1034 340.931L44.4911 341.215C45.9114 342.179 47.4668 342.926 49.1064 343.432L49.4658 343.526H49.6455H49.759C50.0711 343.612 50.3926 343.697 50.7047 343.763C51.0168 343.83 51.3762 343.877 51.6978 343.915H51.8113H51.991H52.3598C52.9273 343.972 53.5042 344 54.0716 344C55.2119 344 56.3493 343.886 57.4669 343.659L57.9303 343.545L58.1384 343.489H58.3464C58.5923 343.432 58.8382 343.375 59.0747 343.299L59.5192 343.148L59.7178 343.072L59.8502 343.024C60.1245 342.93 60.3893 342.835 60.6635 342.721L60.9189 342.608L61.0608 342.541C61.4012 342.39 61.8079 342.2 62.2051 341.982H62.2524C65.6634 340.136 68.3353 337.169 69.8184 333.581C70.9002 330.971 71.3225 328.134 71.0479 325.321V325.265C71.0006 324.781 70.925 324.317 70.8399 323.806C70.8345 323.746 70.8345 323.686 70.8399 323.626V323.531C70.7453 323.086 70.6507 322.688 70.5467 322.319C70.5208 322.219 70.4893 322.121 70.4521 322.025V321.921C70.3291 321.523 70.2062 321.173 70.0832 320.851C70.0832 320.737 69.9981 320.623 69.9508 320.51V320.443C69.7995 320.064 69.6482 319.723 69.4874 319.401C69.4307 319.307 69.3834 319.202 69.3361 319.108C69.1186 318.7 68.92 318.341 68.7119 318L68.5984 317.82C68.3431 317.412 68.0783 317.024 67.8134 316.664L67.7472 316.588C66.8183 315.411 65.7369 314.363 64.5317 313.472C64.1061 313.15 63.7089 312.866 63.3211 312.619L63.1887 312.525H63.1225L62.9239 312.402C62.7347 312.278 62.5456 312.165 62.347 312.061L61.4012 311.559C60.9756 311.36 60.5406 311.17 60.1055 311.009L59.0558 310.63H59.0085L58.4316 310.488L58.2046 310.431L57.9776 310.375H57.8357L58.4599 309.683L59.122 309.011L58.4599 308.338L56.4644 306.349L56.4076 306.292L54.7809 304.673L54.1095 304V304.009Z" fill="white"/>
<path id="Vector_145" d="M55.7938 310.934V312.288C59.5538 312.719 63.007 314.574 65.4451 317.473C67.8832 320.372 69.1216 324.095 68.9063 327.879C68.691 331.663 67.0384 335.222 64.2872 337.824C61.5361 340.427 57.8949 341.877 54.1103 341.877C50.3258 341.877 46.6846 340.427 43.9335 337.824C41.1823 335.222 39.5297 331.663 39.3144 327.879C39.0991 324.095 40.3375 320.372 42.7756 317.473C45.2137 314.574 48.6668 312.719 52.4269 312.288V310.934C48.3061 311.366 44.5081 313.365 41.8162 316.52C39.1243 319.674 37.744 323.743 37.9599 327.887C38.1759 332.031 39.9716 335.934 42.9767 338.79C45.9818 341.647 49.9671 343.24 54.1103 343.24C58.2536 343.24 62.2389 341.647 65.244 338.79C68.2491 335.934 70.0448 332.031 70.2608 327.887C70.4767 323.743 69.0964 319.674 66.4045 316.52C63.7126 313.365 59.9146 311.366 55.7938 310.934Z" fill="#2D5967"/>
<path id="Vector_146" d="M53.4389 339.179H54.7819V307.922L55.7938 308.935L56.8342 309.977L57.7894 309.02L55.7938 307.022L55.7371 306.965L54.1104 305.336L52.4837 306.965L52.4269 307.022L50.4409 309.02L51.3866 309.977L52.4269 308.935L53.4389 307.922V339.179Z" fill="#2D5967"/>
<path id="Vector_147" d="M59.4726 329.764L57.4203 327.708H66.0645V326.363H57.4203L59.4726 324.308L58.5174 323.351L55.7936 326.079L54.8478 327.036L55.7936 327.992L58.5174 330.72L59.4726 329.764Z" fill="#2D5967"/>
<path id="Vector_148" d="M48.7562 324.308L50.799 326.363H42.1548V327.708H50.799L48.7562 329.764L49.702 330.72L52.4257 327.992L53.381 327.036L52.4257 326.079L49.702 323.351L48.7562 324.308Z" fill="#2D5967"/>
</g>
</g>
<g id="Icon Text Label_14">
<text id="IconLabel_16" fill="black" xml:space="preserve" style="white-space: pre" font-family="Oracle Sans" font-size="16" letter-spacing="0em"><tspan x="38.6094" y="361.816">NAT</tspan></text>
<text id="IconLabel_17" fill="black" xml:space="preserve" style="white-space: pre" font-family="Oracle Sans" font-size="16" letter-spacing="0em"><tspan x="23.1172" y="377.816">Gateway</tspan></text>
</g>
</g>
</g>
</g>
<defs>
<clipPath id="clip0_10547_267393">
<rect width="1256" height="696" fill="white"/>
</clipPath>
</defs>
</svg>
